<svg width="72.6923076923" height="60" viewBox="0 0 63 52" fill="none" 
    xmlns="http://www.w3.org/2000/svg">
    <path d="M32.5906 0.276367H8.15475V29.6007H32.5906V0.276367Z" fill="white"/>
    <path d="M59.5586 0.0141957H56.038C56.0406 0.0090336 56.0419 0.00516206 56.0419 0C47.2922 0 38.6793 0 29.9296 0C29.9296 0.549759 30.069 1.18727 30.069 2.09451C29.5993 3.88574 29.9722 5.7002 29.6496 7.54048C28.9088 10.0699 28.1668 9.89309 28.4352 10.6803C28.3436 11.0946 28.2055 11.8856 27.9732 11.7295C27.3176 11.2856 27.0376 11.3785 26.3872 11.5191C25.4012 11.2791 25.3883 10.9874 24.5753 10.9565C22.5143 11.1255 22.9867 11.7063 20.243 11.705C20.243 11.6611 20.9915 11.0971 20.9915 10.8919C20.5295 10.8919 20.123 11.1449 19.6468 11.2584C18.7409 11.7566 17.6078 12.8664 15.9598 11.6121C15.614 11.4404 12.1476 7.88892 11.9502 6.94813C11.754 6.00605 12.1747 5.23046 11.2146 3.83799C10.7874 3.21854 10.1525 2.89721 9.80277 2.56296C9.10589 1.89577 8.93813 0.832382 8.64647 0.316176C8.52 0.0929171 8.00638 0.344567 8.00638 0.17551L8.00767 0.838835C8.00767 0.838835 8.00767 10.3344 8.00767 15.0822C8.00767 18.2505 8.00767 21.4135 8.00767 24.5779C8.31352 24.5779 10.8287 21.5864 8.70583 24.4385C7.57276 25.4644 8.00767 29.2521 8.00767 30.5826C8.00767 37.5643 8.00767 44.546 8.00767 51.5277C25.2309 51.5277 42.4502 51.5277 59.6734 51.5277C59.6734 44.6415 59.6734 30.8614 59.6734 30.8614L59.5586 0.0141957Z" fill="black"/>
    <path d="M22.6008 4.48189C22.7273 4.52061 23.1467 4.43027 23.028 4.52319C22.6008 4.85485 21.9955 6.94936 23.5777 6.6706C23.841 6.62415 24.6953 6.43831 24.8385 6.22925C24.8863 6.22925 24.934 6.22925 24.9779 6.22925C25.4799 6.30797 25.9819 6.39056 26.4839 6.46928C26.9731 6.59963 27.3396 7.06679 27.8984 7.03711C28.23 6.90677 28.5617 6.77901 28.8895 6.64867C28.8895 6.60092 28.8895 6.55704 28.8895 6.50929C28.8895 7.46943 27.7332 7.62688 26.9343 7.62688C26.9821 7.90563 27.0298 8.18567 27.0737 8.46442C27.026 8.46442 26.9821 8.46442 26.9343 8.46442C26.9343 8.51217 26.9343 8.55992 26.9343 8.6038C26.7059 8.85674 25.8761 8.3586 25.3986 8.18438C25.3509 8.18438 25.307 8.18438 25.2592 8.18438C25.2592 8.13663 25.2592 8.09275 25.2592 8.045C25.307 8.045 25.3547 8.045 25.3986 8.045C26 6.94936 24.6088 6.88483 24.281 6.92742C24.281 7.06679 24.312 7.09647 24.312 7.23585C24.4514 7.2836 24.5611 7.44233 24.7005 7.48621C24.5043 7.76496 24.5611 7.83078 24.5611 8.18438C24.0333 8.13147 23.4616 8.04887 23.0383 7.86562C22.6976 7.71721 22.3001 7.39845 22.033 7.14939C21.7594 6.6706 21.8691 5.92727 21.962 5.45752C22.0562 4.98648 22.2782 4.84969 22.6008 4.48189Z" fill="black"/>
    <path d="M22.3259 12.5127C22.1814 12.6043 20.6508 13.2108 19.9526 13.2108C19.9526 13.3502 19.9526 13.4896 19.9526 13.6303C20.5592 13.7477 20.9915 14.1103 21.5451 14.3284C22.3091 14.4949 23.0731 14.664 23.8358 14.8304C24.3288 14.9569 24.6953 15.215 25.258 15.2718C25.4851 15.2937 25.9561 15.1892 25.9561 15.446C26.0039 15.446 26.0516 15.446 26.0955 15.446C25.8813 15.9648 25.3225 17.1043 24.7508 17.3702C23.0189 18.1638 21.1683 16.7107 19.5707 18.4181C19.3913 18.6052 19.1125 18.7936 19.1125 19.0775C18.9951 18.964 18.7486 18.7704 18.6183 18.7355C18.5266 18.7355 18.5111 18.7988 18.4144 18.7988C18.4285 18.9614 18.4686 19.022 18.5705 19.1033C18.7667 19.4002 18.9951 19.6363 19.3913 19.6363C19.3913 20.0557 19.2403 20.8649 19.6352 21.0765C19.9694 21.2288 20.1514 20.8946 20.927 21.1372C21.6084 21.3191 22.2446 20.9255 22.8653 21.0881C23.6319 21.2882 23.739 21.7502 24.3649 21.4159C24.5469 21.4069 24.7585 20.8713 25.0295 20.1732C25.2128 19.2956 25.2476 18.3626 25.6193 17.5728C25.9858 16.8785 26.3523 16.1855 26.7188 15.4873C27.0285 15.1208 27.4389 15.1427 27.5435 14.593C27.7009 13.7503 27.3421 12.6559 26.3742 12.6559C25.8813 12.5204 23.3028 12.865 23.3028 12.3772C23.2112 12.3255 22.4653 12.5127 22.3259 12.5127Z" fill="white"/>
    <path d="M18.5563 13.77C18.4208 13.9094 17.7188 14.3288 17.9975 14.3288C18.2066 14.6256 19.8171 15.8477 20.1139 15.0657C20.0572 14.9263 20.0043 14.7908 19.9488 14.6514C19.5461 14.0488 19.3319 13.8655 18.5563 13.77Z" fill="white"/>
    <path d="M11.8534 20.7515C11.8534 20.7992 11.8534 20.847 11.8534 20.8908C11.6391 21.1877 11.4301 21.4845 11.2159 21.7761C10.7964 22.1904 10.3783 22.6098 9.95889 23.0241C9.85823 23.1892 8.62063 24.9353 8.62063 24.7043C10.4557 22.9582 10.8029 22.1401 12.2354 21.6961C13.9414 21.167 14.5686 21.7555 14.8383 21.8316C14.8396 21.6922 13.0135 20.8212 11.8534 20.7515Z" fill="white"/>
    <path d="M18.6815 22.6777C17.8414 22.5344 14.9442 22.0415 17.5239 22.4815C17.8814 22.5422 18.7202 22.7177 19.4997 22.7719C20.1617 22.8184 20.505 23.23 20.905 23.252C21.4316 23.2816 22.0058 23.0752 21.8574 23.1242C21.2135 23.3346 20.5566 23.3488 19.8584 22.9487C19.5952 22.7977 19.1641 22.759 18.6815 22.6777Z" fill="white"/>
    <path d="M55.0779 0.245117C54.8637 0.649048 52.9215 6.91966 52.684 7.59718C52.333 8.59733 49.3351 7.66041 47.953 8.23598C47.1825 8.55603 46.3721 9.22194 45.8004 10.6299C45.3694 11.6907 45.0042 11.439 44.8157 11.9269C44.719 12.1746 44.9009 12.6831 44.8093 12.9515C44.6906 13.3 44.4828 13.1128 44.386 13.6007C44.2905 14.0885 44.546 14.184 44.4738 14.5324C44.4015 14.8808 44.1692 14.8331 44.0969 15.2745C44.0247 15.7158 44.186 15.9275 44.0905 16.2991C43.995 16.6708 43.7859 16.5301 43.6672 16.9715C43.5485 17.4128 43.8259 17.6245 43.7549 17.9265C43.6594 18.3278 43.4568 18.2865 43.3781 18.6685C43.2826 19.1331 43.5614 19.2518 43.4659 19.6003C43.3704 19.9487 43.1123 19.91 42.9948 20.4352C42.8774 20.9605 43.3252 21.0018 43.2452 21.367C43.151 21.7993 42.9393 21.6535 42.8219 22.1322C42.7045 22.611 43.0981 22.7156 42.9793 23.1105C42.8606 23.5054 42.6993 23.2485 42.5573 23.6899C42.4154 24.1313 42.5522 24.4345 42.5044 24.8062C42.4554 25.1779 40.2835 28.701 49.2654 30.5916C58.2874 32.4912 59.6993 29.2817 59.796 28.7242C59.8928 28.1667 59.6167 28.1925 59.756 27.6066C59.8631 27.1536 59.9186 27.5731 60.0387 26.9794C60.1587 26.3871 59.9251 26.6297 60.009 26.107C60.0929 25.5844 60.3122 25.9457 60.4206 25.3301C60.5291 24.7146 60.3897 24.6552 60.4736 24.1674C60.5574 23.6796 60.7304 24.0409 60.8491 23.5183C60.9691 22.9956 60.5716 23.2137 60.6671 22.7723C60.7626 22.331 60.8891 22.7388 60.9962 22.2161C61.1046 21.6935 60.8723 21.6341 60.9562 21.145C61.0401 20.6572 61.1666 20.9372 61.2866 20.3087C61.4066 19.6816 61.1369 19.9358 61.2453 19.4712C61.3524 19.0066 61.444 19.3215 61.5744 18.8221C61.7047 18.3226 61.4376 18.3794 61.5331 17.9381C61.6286 17.4967 61.6595 18.0787 61.7679 17.5199C61.8763 16.9624 61.7357 17.147 61.8196 16.7289C61.9034 16.3107 61.866 16.7289 62.0093 16.2178C62.1525 15.7068 62.4777 12.0495 61.8763 11.3939C60.9614 10.3976 59.6863 9.65168 59.2218 9.4168C58.7572 9.18193 58.7185 9.08514 58.7223 8.38697C58.7262 7.68881 59.5263 0.281252 59.5263 0.281252L55.0779 0.245117Z" fill="white"/>
    <path d="M55.025 0.481769C54.9579 0.386271 54.5398 2.42012 54.7011 3.03441C54.7011 3.08216 54.7011 3.1299 54.7011 3.17378C54.6533 3.17378 54.6095 3.17378 54.5617 3.17249C54.563 2.75437 54.4494 2.35172 55.025 0.481769Z" fill="black"/>
    <path d="M54.2816 3.1709C54.3733 3.1709 54.4688 3.17219 54.5604 3.17219C54.4804 3.3335 53.2428 7.46831 53.0414 7.46702C53.0427 7.37669 54.2803 3.26769 54.2816 3.1709Z" fill="black"/>
    <path d="M49.6513 8.35498C49.8319 8.36143 49.7907 8.35885 50.9147 8.41822C50.9173 8.46597 50.9199 8.51371 50.9224 8.55759C50.8747 8.56017 50.8308 8.56275 50.7831 8.56662C50.7856 8.61437 50.7882 8.66212 50.7908 8.706C50.2965 8.73568 49.2667 8.60792 48.5982 8.64922C48.3195 8.67245 48.242 8.75891 47.5168 8.92926C47.691 8.68406 48.3104 8.47758 48.3543 8.475C48.4524 8.44532 48.5802 8.42467 48.6756 8.41434C48.9015 8.39111 49.4719 8.35498 49.6513 8.35498Z" fill="black"/>
    <path d="M53.2712 8.75098C53.2221 8.90326 53.0286 9.1691 53.2686 9.17039C53.2686 9.26202 53.2673 9.35752 53.2673 9.44915C53.315 9.44915 53.3628 9.44915 53.4067 9.44915C53.4067 9.4014 53.4067 9.35752 53.408 9.30977C53.4557 9.30977 53.5048 9.30977 53.5473 9.31106C53.5473 9.26331 53.5473 9.21943 53.5486 9.17168C53.6403 9.17168 53.7358 9.17298 53.8274 9.17298C53.8287 9.0336 53.8287 8.89422 53.83 8.75356C53.6428 8.75227 53.4596 8.75227 53.2712 8.75098Z" fill="black"/>
    <path d="M42.969 26.4243C43.1509 26.5869 43.9382 27.7342 43.9369 27.9665C43.8891 27.9665 43.8452 27.9665 43.7975 27.9665C43.3252 27.4554 43.0748 27.1135 42.969 26.4243Z" fill="black"/>
    <path d="M50.6282 30.9375C50.676 30.9375 50.7237 30.9375 50.7676 30.9375C50.7198 30.9388 50.676 30.9388 50.6282 30.9375Z" fill="black"/>
    <path d="M61.5938 11.3678C60.853 10.3057 60.1884 9.90696 58.6656 9.16491C58.0255 8.80227 58.6682 5.3153 58.5752 5.3295C58.4694 5.32821 58.3623 5.75795 58.2784 6.3232C58.2836 5.87668 58.2978 5.40693 58.3184 4.93331C58.321 4.91008 58.3249 4.88814 58.3275 4.86621C58.3481 4.67392 58.3533 4.47647 58.3507 4.27773C58.4604 2.21033 58.6552 0.271973 58.6552 0.271973L57.859 0.274554C57.859 0.274554 57.0731 2.34325 57.3931 2.86204C57.8087 3.53568 58.0577 3.78733 57.4654 4.70618C56.8743 5.62374 57.1957 7.97247 56.8576 8.38931C56.6679 8.62418 55.2689 8.40222 54.0326 8.22154C54.0133 8.21251 53.9939 8.20606 53.9745 8.19573C53.9358 8.19573 53.892 8.19573 53.8494 8.19444C52.9563 8.06539 52.1872 7.97247 52.0839 8.10927C51.831 8.44351 52.6647 9.11845 51.742 9.36365C50.8192 9.61014 49.7791 9.70176 48.6383 9.93277C47.6549 10.1315 46.9438 10.5238 46.8238 10.8865C46.8251 10.6206 47.8614 10.4683 49.9469 10.6219C50.7121 10.6787 54.1281 10.7587 58.6114 12.4519C59.8864 12.9332 60.2181 13.7088 60.3716 14.0211C60.6207 14.5257 60.8724 14.2753 60.9575 14.025C61.0427 13.7746 61.0453 13.3552 61.3795 13.4417C61.7138 13.5281 61.7951 14.0302 61.7925 14.5335C61.7899 15.0368 61.9551 15.3723 61.9551 15.3723C61.9551 15.3723 62.3655 12.4751 61.5938 11.3678Z" fill="black"/>
    <path d="M59.1172 9.41143C58.6255 9.24109 58.4977 9.04364 58.5029 8.34547C58.5068 7.6473 59.3069 0.239746 59.3069 0.239746" stroke="black" stroke-width="0.75"/>
    <path d="M44.8028 12.5698C44.657 12.8008 44.706 13.1738 44.7073 13.3609C44.7073 13.548 49.739 13.65 50.9108 14.0384C51.2451 14.1494 51.1715 13.8436 51.2192 13.7042C51.2683 13.5648 51.4154 13.1867 51.0734 13.0886C50.7314 12.9905 48.3169 12.6163 47.389 12.6047C46.4624 12.5918 44.8028 12.5698 44.8028 12.5698Z" fill="black"/>
    <path d="M44.466 14.25C44.3202 14.481 44.3692 14.8553 44.3705 15.0411C44.3705 15.2282 49.428 15.3263 50.5998 15.7147C50.934 15.8257 50.8953 15.6747 50.9444 15.5354C50.9934 15.396 50.9921 14.9856 50.6501 14.8875C50.3081 14.7894 47.9813 14.2965 47.0535 14.2848C46.1256 14.2732 44.466 14.25 44.466 14.25Z" fill="black"/>
    <path d="M44.1769 15.7441C44.1769 15.9777 44.1782 16.3507 44.0323 16.4875C43.8865 16.6256 47.0754 16.965 48.3775 17.1998C49.7054 17.4386 50.6888 17.7702 50.7378 17.2605C50.7649 16.9792 50.5727 16.7636 49.5957 16.5636C48.6188 16.3636 46.1281 15.8642 45.5435 15.8564C44.9576 15.8487 44.1769 15.7441 44.1769 15.7441Z" fill="black"/>
    <path d="M43.7911 17.6042C43.742 17.8365 43.6698 18.1036 43.573 18.2882C43.4762 18.474 45.7797 18.5773 46.7838 18.7515C48.9841 19.1335 50.5314 19.3593 50.5895 19.0251C50.6747 18.5334 50.7405 18.3359 47.1593 17.883C44.7176 17.5745 43.7911 17.4648 43.7911 17.4648" fill="black"/>
    <path d="M43.5006 19.2317C43.5006 19.4059 43.4658 19.8253 43.3922 19.9647C43.3199 20.104 45.5745 20.3944 46.7398 20.597C49.6667 21.1055 50.2113 21.2874 50.3003 20.677C50.4036 19.9711 48.4407 19.824 47.4135 19.6833C46.3862 19.5427 44.5937 19.2123 43.5367 19.1284L43.5006 19.2317Z" fill="black"/>
    <path d="M43.3587 20.8379C43.2864 21.047 43.3587 21.1528 43.3226 21.3618C43.2864 21.5709 43.2503 21.6057 43.1032 21.7438C42.9573 21.8819 49.4073 22.8008 49.517 22.8369C49.6267 22.873 49.6112 22.5814 49.6487 22.442C49.6848 22.3026 49.8409 22.0394 49.6938 22.0019C49.548 21.9645 43.3587 20.8379 43.3587 20.8379Z" fill="black"/>
    <path d="M43.0335 22.6147C43.0709 22.9296 43.1806 23.0367 42.9625 23.2432C42.7431 23.4497 44.2182 23.7478 45.7823 23.9762C47.3193 24.2008 49.2486 24.5789 49.2486 24.5789C49.3957 24.0433 49.2641 23.9724 49.3183 23.8162C49.3544 23.7117 46.3682 23.1903 45.5629 23.0742C44.7563 22.9567 43.0335 22.6147 43.0335 22.6147Z" fill="black"/>
    <path d="M42.707 24.1846C42.6708 24.533 42.5986 24.8118 42.5263 24.986C42.454 25.1602 43.1496 25.2389 44.4672 25.537C45.7862 25.8351 49.006 26.3268 49.006 26.3268L49.1518 25.4867C49.1518 25.4867 46.443 24.9344 45.8933 24.8569C45.3448 24.7795 42.707 24.1846 42.707 24.1846Z" fill="black"/>
    <path d="M53.0324 13.4279C54.1074 13.5918 61.795 14.3687 61.7201 17.0478C61.7201 17.0478 61.3343 16.2154 58.0628 15.4037C55.7709 14.8358 52.7937 14.3635 52.7937 14.3635L52.9408 13.4072" fill="black"/>
    <path d="M52.7305 15.3232C55.2625 15.6614 58.392 16.2085 59.9948 16.806C61.1175 17.2255 61.5227 17.6591 61.4608 18.2682C61.4453 18.4192 60.751 17.7236 58.1597 17.1816C56.3426 16.8022 52.5459 16.1298 52.5459 16.1298L52.7305 15.3232Z" fill="black"/>
    <path d="M50.7082 25.7588L50.5663 26.6041C50.5663 26.6041 54.0468 27.5049 58.8385 27.8533C59.2592 27.8843 59.627 27.2442 59.4308 26.9461C59.4308 26.9461 58.521 27.0338 54.954 26.4079C54.6443 26.355 50.7082 25.7588 50.7082 25.7588Z" fill="black"/>
    <path d="M50.9482 24.92C51.2089 24.9561 54.2507 25.4013 55.1334 25.5807C56.1413 25.7846 59.2024 26.2905 59.5534 26.244C59.8592 26.204 59.8257 26.0376 59.8192 25.8633C59.8102 25.5846 59.9896 25.5833 59.9393 25.3949C59.9393 25.3949 57.7867 25.1342 55.7386 24.7638C53.6906 24.3934 51.0102 23.8359 51.0102 23.8359L50.9482 24.92Z" fill="black"/>
    <path d="M51.2309 23.1587C51.2309 23.1587 60.0916 24.7976 60.1341 24.6376C60.2077 24.3563 60.1032 24.4285 60.1587 24.2053C60.2284 23.9226 60.2619 24.0427 60.3135 23.742C60.3135 23.742 57.9325 23.3909 56.3194 23.0838C54.7062 22.7779 51.649 22.1933 51.4567 22.1637C51.2632 22.1353 51.2309 23.1587 51.2309 23.1587Z" fill="black"/>
    <path d="M51.8181 20.3389C51.8181 20.3389 55.2883 21.1661 56.3233 21.3842C57.3582 21.6036 60.1522 22.0862 60.4606 22.2811C60.7691 22.4772 60.5019 22.5147 60.52 22.7018C60.5458 22.9689 60.48 23.0696 60.369 23.0709C60.2684 23.0709 56.9943 22.4063 55.958 22.2333C54.9217 22.0617 51.5948 21.4577 51.5948 21.4577L51.8181 20.3389Z" fill="black"/>
    <path d="M52.1742 18.6479L52.0232 19.4816C52.0232 19.4816 55.8754 20.3476 56.4226 20.434C56.971 20.5205 59.4733 21.0031 59.7211 21.1038C59.9689 21.2045 60.9226 21.4122 60.9226 21.4122C60.9768 21.2741 60.9291 21.1799 60.9329 21.087C60.9355 20.9941 61.0646 20.8818 60.9691 20.7154C60.8348 20.4805 58.9146 19.9991 57.0743 19.6158C55.234 19.2326 52.1742 18.6479 52.1742 18.6479Z" fill="black"/>
    <path d="M52.2994 17.9389L52.4194 17.002C52.4194 17.002 59.6708 18.4318 60.098 18.5841C60.9884 18.9055 61.2569 19.1532 61.2259 19.3623C61.1936 19.5714 61.1639 19.6359 61.1368 19.8475C61.1201 19.9753 60.3754 19.5262 59.3585 19.2436C57.4331 18.7093 52.2994 17.9389 52.2994 17.9389Z" fill="black"/>
    <path d="M51.1744 12.3577L48.6965 26.627L50.0571 26.8632L52.535 12.5939L51.1744 12.3577Z" fill="white"/>
    <path d="M59.9147 13.8368C59.5185 13.0329 59.1172 12.949 58.3984 12.465C57.6795 11.9798 54.3126 11.6391 53.5099 11.5539C52.7085 11.4687 50.0655 10.5718 49.0228 10.6454C47.98 10.719 47.9774 11.0403 47.3335 11.4378L47.3296 12.0792L50.9301 12.8664L50.7017 13.8846C47.5838 13.3606 45.0931 13.5013 44.5937 13.4265C44.5937 13.4265 44.3498 13.9865 44.7512 13.9891C45.088 13.9917 48.3427 14.3982 50.5146 14.7183L50.3339 15.521C48.1981 15.3067 44.3614 15.0331 44.3614 15.0331L44.1111 15.5274C44.1111 15.5274 47.8729 16.1649 50.1081 16.5301L49.9442 17.2632C47.9878 17.0102 45.1112 16.7276 44.6002 16.7702C43.9175 16.8283 43.9175 16.8283 43.9175 16.8283C43.7923 17.0141 43.7291 17.2619 43.7291 17.2619C43.7291 17.2619 47.5425 18.0117 49.69 18.3924L49.5235 19.1383C47.2612 18.8376 43.5368 18.3769 43.5368 18.3769L43.4723 18.8724C43.4723 18.8724 46.8624 19.4506 49.3183 20.0507L49.1144 20.9592C47.025 20.6611 43.3406 20.1733 43.3406 20.1733L43.1522 20.6675C43.1522 20.6675 46.714 21.3463 48.9286 21.7929L48.7079 22.7762C46.6843 22.4381 43.782 22.0187 43.6413 21.971C43.4555 21.9077 43.0812 22.34 43.0812 22.34C43.0812 22.34 46.4327 23.1027 48.5195 23.6177L48.2988 24.601C46.061 24.1868 42.7018 23.5776 42.7018 23.5776L42.6373 24.0113C42.6373 24.0113 46.0894 24.721 48.1555 25.2398L47.3786 28.7036L47.8006 28.7991L47.5387 30.1141L49.9661 30.6806L50.232 29.3437L50.3094 29.3617L51.1469 25.6257C53.7912 25.9522 53.9603 25.5844 51.2515 25.1572L51.5302 23.9171C53.7551 24.1635 52.1613 23.5583 51.6515 23.3763L51.9058 22.2407C54.5178 22.5839 54.7823 22.1168 52.0658 21.5309L52.3136 20.4275C55.2456 20.8288 54.9914 20.2817 52.4788 19.6945L52.7007 18.7034C54.7823 19.0028 54.9914 18.6388 52.8595 17.9975L53.0982 16.9315C55.0675 17.3225 55.567 16.7766 53.2686 16.174L53.4583 15.33C55.9683 15.7765 56.2806 15.1816 53.6557 14.4511L53.888 13.4148L60.2528 14.6099C60.2528 14.6086 60.3122 14.6421 59.9147 13.8368Z" fill="white"/>
    <path d="M53.8248 13.5513L50.8992 26.6784" stroke="black" stroke-width="0.3"/>
    <path d="M0.627201 40.8743H1.62735V41.8577C1.89965 41.2047 2.40424 40.7594 3.1721 40.7917V41.8486H3.11402C2.23776 41.8486 1.62735 42.419 1.62735 43.5753V45.2362H0.627201V40.8743Z" fill="black"/>
    <path d="M6.50166 45.2365V44.6997C6.20484 45.0546 5.75058 45.3281 5.08855 45.3281C4.26262 45.3281 3.53606 44.8571 3.53606 43.9821V43.9654C3.53606 42.9988 4.28714 42.5368 5.30406 42.5368C5.83317 42.5368 6.17129 42.6116 6.51069 42.7187V42.6361C6.51069 42.0335 6.13128 41.7031 5.43698 41.7031C4.94917 41.7031 4.58654 41.8102 4.18906 41.9754L3.91676 41.174C4.39554 40.9598 4.86658 40.8101 5.57765 40.8101C6.86687 40.8101 7.49406 41.4876 7.49406 42.6516V45.2378H6.50166V45.2365ZM6.52618 43.4104C6.27066 43.3111 5.91447 43.2375 5.52603 43.2375C4.89884 43.2375 4.52588 43.493 4.52588 43.915V43.9318C4.52588 44.3448 4.89755 44.5758 5.36859 44.5758C6.02933 44.5758 6.52489 44.2041 6.52489 43.6595V43.4104H6.52618Z" fill="black"/>
    <path d="M8.66582 43.0634V43.0466C8.66582 41.6013 9.6492 40.7831 10.6894 40.7831C11.4082 40.7831 11.8624 41.147 12.176 41.5509V39.2061H13.1762V45.2366H12.176V44.5101C11.8534 44.9643 11.3991 45.3283 10.6894 45.3283C9.66468 45.327 8.66582 44.5088 8.66582 43.0634ZM12.1928 43.0634V43.0466C12.1928 42.2039 11.5979 41.6503 10.9294 41.6503C10.2441 41.6503 9.67372 42.1794 9.67372 43.0466V43.0634C9.67372 43.9061 10.2519 44.4597 10.9294 44.4597C11.5979 44.4597 12.1928 43.8984 12.1928 43.0634Z" fill="white"/>
    <path d="M14.4396 39.2554H15.5133V40.2052H14.4396V39.2554ZM14.4809 40.875H15.481V45.2369H14.4809V40.875Z" fill="white"/>
    <path d="M16.5457 43.0798V43.0631C16.5457 41.8151 17.5368 40.7827 18.8751 40.7827C20.2133 40.7827 21.1967 41.7984 21.1967 43.0463V43.0631C21.1967 44.3019 20.2056 45.3344 18.8596 45.3344C17.5291 45.3357 16.5457 44.3187 16.5457 43.0798ZM20.1965 43.0798V43.0631C20.1965 42.2952 19.6429 41.659 18.8583 41.659C18.0569 41.659 17.5445 42.2875 17.5445 43.0463V43.0631C17.5445 43.8232 18.0982 44.4671 18.8751 44.4671C19.6855 44.4671 20.1965 43.8322 20.1965 43.0798Z" fill="white"/>
    <path d="M24.6243 40.8092H25.88V41.7009C26.1355 41.0892 26.5485 40.693 27.2931 40.7266V42.0403H27.2273C26.3923 42.0403 25.8813 42.5449 25.8813 43.6019V45.2369H24.6256V40.8092H24.6243Z" fill="white"/>
    <path d="M27.7396 43.0472V43.0304C27.7396 41.758 28.7643 40.7256 30.1438 40.7256C31.5156 40.7256 32.5313 41.7412 32.5313 43.0137V43.0304C32.5313 44.3029 31.5066 45.3353 30.127 45.3353C28.7565 45.3366 27.7396 44.3197 27.7396 43.0472ZM31.2924 43.0472V43.0304C31.2924 42.3774 30.8213 41.8083 30.127 41.8083C29.4082 41.8083 28.9785 42.362 28.9785 43.015V43.0317C28.9785 43.6847 29.4495 44.2539 30.1438 44.2539C30.8626 44.2539 31.2924 43.7002 31.2924 43.0472Z" fill="white"/>
    <path d="M33.2256 43.0472V43.0304C33.2256 41.758 34.2502 40.7256 35.6298 40.7256C37.0016 40.7256 38.0172 41.7412 38.0172 43.0137V43.0304C38.0172 44.3029 36.9926 45.3353 35.613 45.3353C34.2412 45.3366 33.2256 44.3197 33.2256 43.0472ZM36.7771 43.0472V43.0304C36.7771 42.3774 36.306 41.8083 35.6117 41.8083C34.8929 41.8083 34.4632 42.362 34.4632 43.015V43.0317C34.4632 43.6847 34.9342 44.2539 35.6285 44.2539C36.3473 44.2539 36.7771 43.7002 36.7771 43.0472Z" fill="white"/>
    <path d="M38.9245 39.2061H40.1802V42.4194L41.6501 40.8089H43.1535L41.4681 42.5524L43.2116 45.2366H41.774L40.6177 43.4273L40.1802 43.8893V45.2353H38.9245V39.2061Z" fill="white"/>
    <path d="M43.8401 39.2061H45.1615V40.3211H43.8401V39.2061ZM43.8723 40.8089H45.128V45.2366H43.8723V40.8089Z" fill="white"/>
    <path d="M46.0946 43.0472V43.0304C46.0946 41.767 46.9953 40.7256 48.2833 40.7256C49.7622 40.7256 50.4397 41.8741 50.4397 43.1298C50.4397 43.2292 50.432 43.344 50.4229 43.4602H47.3412C47.4651 44.0306 47.8613 44.3274 48.4239 44.3274C48.8446 44.3274 49.1505 44.1958 49.4976 43.8731L50.2165 44.5094C49.8035 45.0217 49.2086 45.3353 48.4072 45.3353C47.0779 45.3366 46.0946 44.4023 46.0946 43.0472ZM49.2176 42.6756C49.1427 42.1142 48.8124 41.7335 48.2846 41.7335C47.7645 41.7335 47.4251 42.1051 47.3257 42.6756H49.2176Z" fill="white"/>
    <path d="M51.0256 44.6494L51.5625 43.8234C52.0412 44.1706 52.5458 44.3526 52.9588 44.3526C53.3227 44.3526 53.4879 44.2209 53.4879 44.0222V44.0054C53.4879 43.7331 53.0582 43.6415 52.5716 43.4931C51.9522 43.3111 51.2502 43.022 51.2502 42.1626V42.1458C51.2502 41.245 51.9767 40.7417 52.8697 40.7417C53.4311 40.7417 54.0428 40.9314 54.5216 41.254L54.0428 42.1213C53.6053 41.8657 53.1666 41.7083 52.8452 41.7083C52.5394 41.7083 52.3832 41.8399 52.3832 42.0141V42.0309C52.3832 42.2787 52.8039 42.3948 53.284 42.56C53.9035 42.7665 54.6223 43.0633 54.6223 43.8738V43.8906C54.6223 44.8739 53.8867 45.3192 52.9291 45.3192C52.3071 45.3192 51.6128 45.1127 51.0256 44.6494Z" fill="white"/>
</svg>
