<?xml version="1.0" encoding="utf-8"?>
<!-- Generator: Adobe Illustrator 24.2.0, SVG Export Plug-In . SVG Version: 6.00 Build 0)  -->
<svg version="1.1" id="Layer_1" 
	xmlns="http://www.w3.org/2000/svg" 
	xmlns:xlink="http://www.w3.org/1999/xlink" viewBox="0 0 87.5 34.8" width="150.8620689655" height="60" style="enable-background:new 0 0 87.5 34.8;" xml:space="preserve">
	<style type="text/css">
	.st0{fill:#FFE2BE;}
	</style>
	<rect x="25.3" y="11.4" class="st0" width="14.2" height="16"/>
	<rect x="48" y="11.4" class="st0" width="14.2" height="16"/>
	<rect x="71.1" y="11.4" class="st0" width="14.2" height="16"/>
	<g id="Layer_2_1_">
		<g id="Layer_1-2">
			<path d="M56.9,20.8v4.8h-3.5v-4.8l-4.7-7.6h3.9l2.5,4.4l2.6-4.4h3.8L56.9,20.8z M45.5,34.8h19.3V7.2H45.5V34.8z"/>
			<path d="M78.3,25.9c-3.5,0.1-6.3-2.7-6.4-6.2c0-0.1,0-0.1,0-0.2l0,0c-0.1-3.5,2.7-6.4,6.2-6.5c0.1,0,0.2,0,0.3,0
			c2.1-0.1,4.1,0.9,5.2,2.6l-2.6,2c-0.6-0.9-1.6-1.4-2.7-1.5c-1.7,0-3,1.4-3,3.1c0,0.1,0,0.1,0,0.2l0,0c-0.1,1.7,1.1,3.2,2.8,3.3
			c0.1,0,0.1,0,0.2,0c1.1,0,2.2-0.6,2.8-1.5l2.6,1.8C82.6,24.9,80.5,25.9,78.3,25.9 M68.2,34.8h19.3V0H68.2V34.8z"/>
			<path d="M38.4,25.6h-3l-5.3-6.8v6.8h-3.4V13.3h3.2l5.1,6.5v-6.5h3.4L38.4,25.6z M22.7,34.8H42V4.1H22.7V34.8z"/>
			<polygon points="4.2,25.7 7.2,25.7 9.6,18.6 12.1,25.7 15.1,25.7 19.3,13.2 15.7,13.2 13.6,20.4 11.2,13.2 8.2,13.2 5.8,20.4 
			3.7,13.2 0.1,13.2 		"/>
			<rect y="28.9" width="19.3" height="5.9"/>
		</g>
	</g>
</svg>
