<?xml version="1.0" standalone="no"?>
<!DOCTYPE svg PUBLIC "-//W3C//DTD SVG 20010904//EN"
 "http://www.w3.org/TR/2001/REC-SVG-20010904/DTD/svg10.dtd">
<svg version="1.0" xmlns="http://www.w3.org/2000/svg"
 width="512.000000pt" height="512.000000pt" viewBox="0 0 512.000000 512.000000"
 preserveAspectRatio="xMidYMid meet">
<metadata>
Created by potrace 1.11, written by Peter Selinger 2001-2013
</metadata>
<g transform="translate(0.000000,512.000000) scale(0.100000,-0.100000)"
fill="#000000" stroke="none">
<path d="M2409 5106 c-3 -3 -37 -7 -184 -20 -16 -2 -37 -6 -45 -9 -8 -4 -37
-9 -65 -12 -27 -2 -93 -16 -145 -31 -52 -14 -102 -27 -110 -28 -8 -2 -22 -6
-30 -9 -8 -3 -44 -16 -80 -28 -36 -12 -89 -32 -119 -45 -29 -13 -60 -24 -67
-24 -8 0 -14 -5 -14 -11 0 -5 -4 -7 -10 -4 -5 3 -10 1 -10 -5 0 -6 -4 -9 -9
-5 -5 3 -15 0 -23 -7 -7 -7 -18 -14 -23 -15 -6 -1 -50 -22 -98 -48 l-88 -47
25 -43 26 -43 -25 -16 c-13 -9 -26 -16 -29 -16 -8 0 -167 -110 -212 -146 l-42
-33 -25 30 c-22 27 -28 29 -48 18 -64 -34 -382 -355 -423 -427 -5 -9 -18 -26
-28 -37 -29 -30 -119 -170 -176 -271 -86 -153 -180 -366 -208 -474 -2 -8 -13
-46 -24 -85 -37 -126 -59 -238 -75 -390 -4 -38 -9 -79 -11 -90 -7 -37 -1 -480
6 -480 3 0 11 -75 13 -112 1 -18 5 -33 8 -33 4 0 7 -10 7 -22 1 -22 9 -63 12
-63 1 0 3 -12 5 -28 6 -43 66 -259 81 -288 7 -15 10 -29 7 -33 -4 -3 0 -6 7
-6 7 0 11 -3 7 -6 -8 -8 64 -176 127 -297 57 -109 155 -268 189 -305 11 -12
17 -22 12 -22 -5 0 -2 -6 6 -13 8 -6 33 -34 54 -62 104 -132 266 -295 408
-409 178 -143 418 -281 657 -377 112 -45 345 -111 433 -123 38 -6 52 -8 105
-20 89 -20 507 -29 647 -13 148 16 171 20 186 28 9 4 19 6 22 2 4 -3 13 -1 20
5 8 7 16 9 19 6 13 -12 307 74 438 129 82 35 90 43 76 77 -4 11 21 28 102 67
l107 52 319 -1 c216 0 322 4 329 11 8 8 8 11 -1 11 -7 0 -11 3 -11 8 1 4 0 9
-1 12 -1 3 -3 40 -4 82 -3 89 -14 117 -60 142 -54 29 -64 70 -32 131 18 34 53
75 65 75 6 0 11 5 11 11 0 7 12 24 28 38 15 15 39 42 53 61 15 19 36 45 47 58
11 13 37 48 58 78 20 30 41 54 45 54 4 0 15 -7 23 -16 15 -14 18 -13 34 15 9
17 20 31 25 31 4 0 7 4 7 9 0 6 13 29 28 53 16 24 38 59 48 78 10 19 23 38 27
41 5 3 8 9 8 13 -1 3 11 30 26 59 15 28 27 54 28 57 0 3 11 28 24 55 34 75 79
193 78 205 0 3 6 16 13 30 8 14 13 28 12 32 -1 4 5 25 13 48 17 49 55 203 60
245 2 17 6 46 10 65 35 188 40 567 9 750 -3 19 -7 48 -9 65 -2 16 -4 30 -5 30
-2 0 -9 34 -14 70 -19 141 -127 448 -219 625 -22 41 -46 89 -55 105 -32 62
-161 253 -223 330 -80 101 -248 273 -341 351 -39 32 -75 64 -82 69 -31 27
-158 115 -166 115 -6 0 -10 5 -10 10 0 6 -5 10 -11 10 -6 0 -29 13 -52 29 -37
25 -293 162 -299 160 -4 -1 -54 19 -93 36 -60 26 -115 45 -115 39 0 -4 -6 -2
-12 3 -7 5 -33 15 -58 22 -25 8 -65 20 -90 27 -43 13 -163 38 -225 48 -16 2
-30 5 -30 6 0 1 -18 3 -40 6 -22 2 -56 7 -75 10 -42 6 -455 16 -461 10z m244
-103 c-7 -2 -21 -2 -30 0 -10 3 -4 5 12 5 17 0 24 -2 18 -5z m83 -5 c3 -4 -1
-5 -10 -4 -8 1 -18 5 -22 8 -3 4 1 5 10 4 8 -1 18 -5 22 -8z m88 -7 c4 -5 -3
-7 -14 -4 -23 6 -26 13 -6 13 8 0 17 -4 20 -9z m69 -8 c-7 -2 -19 -2 -25 0 -7
3 -2 5 12 5 14 0 19 -2 13 -5z m84 -9 c-3 -3 -12 -4 -19 -1 -8 3 -5 6 6 6 11
1 17 -2 13 -5z m43 2 c0 -2 -7 -7 -16 -10 -8 -3 -12 -2 -9 4 6 10 25 14 25 6z
m44 -15 c4 -5 -3 -7 -14 -4 -23 6 -26 13 -6 13 8 0 17 -4 20 -9z m166 -40 c14
-5 18 -10 10 -10 -20 0 -148 34 -156 41 -7 7 107 -18 146 -31z m64 -20 c4 -5
-3 -7 -14 -4 -23 6 -26 13 -6 13 8 0 17 -4 20 -9z m41 -11 c3 -6 -1 -7 -9 -4
-18 7 -21 14 -7 14 6 0 13 -4 16 -10z m45 -16 c0 -2 -7 -4 -15 -4 -8 0 -15 4
-15 10 0 5 7 7 15 4 8 -4 15 -8 15 -10z m71 -24 c24 -11 39 -20 33 -20 -7 0
-31 9 -55 20 -24 11 -39 20 -33 20 7 0 31 -9 55 -20z m94 -40 c3 -5 -4 -6 -15
-3 -11 3 -22 9 -25 13 -3 5 4 6 15 3 11 -3 22 -9 25 -13z m75 -30 c8 -5 11
-10 5 -10 -5 0 -17 5 -25 10 -8 5 -10 10 -5 10 6 0 17 -5 25 -10z m80 -46 c0
-2 -13 2 -30 11 -16 9 -30 18 -30 21 0 2 14 -2 30 -11 17 -9 30 -18 30 -21z
m35 -22 c-3 -3 -11 0 -18 7 -9 10 -8 11 6 5 10 -3 15 -9 12 -12z m40 -20 c-3
-3 -11 0 -18 7 -9 10 -8 11 6 5 10 -3 15 -9 12 -12z m76 -39 c13 -17 13 -17
-6 -3 -11 8 -22 16 -24 17 -2 2 0 3 6 3 6 0 17 -8 24 -17z m77 -58 c-3 -3 -9
2 -12 12 -6 14 -5 15 5 6 7 -7 10 -15 7 -18z m73 -42 c13 -16 12 -17 -3 -4
-10 7 -18 15 -18 17 0 8 8 3 21 -13z m49 -33 c0 -5 -2 -10 -4 -10 -3 0 -8 5
-11 10 -3 6 -1 10 4 10 6 0 11 -4 11 -10z"/>
</g>
</svg>
