<?xml version="1.0" encoding="utf-8"?>
<!-- Generator: Adobe Illustrator 24.1.3, SVG Export Plug-In . SVG Version: 6.00 Build 0)  -->
<svg version="1.1" id="Layer_1" xmlns="http://www.w3.org/2000/svg" xmlns:xlink="http://www.w3.org/1999/xlink" x="0px" y="0px"
	 viewBox="0 0 382 285" style="enable-background:new 0 0 382 285;" xml:space="preserve">
<style type="text/css">
	.st0{fill:#FFE2BE;}
	.st1{fill:#204D8F;}
</style>
<polygon class="st0" points="47,231 22,132 318,30 357,219 59,216 "/>
<g>
	<path class="st1" d="M83.51,174.56c-0.27-2.84-1.41-5.06-3.3-4.87c-1.92,0.19-2.66,2.51-2.43,5.24l0.05,0.6
		c0.24,2.74,1.25,5.11,3.35,5.06c2.06-0.05,2.64-2.56,2.38-5.4L83.51,174.56z"/>
	<path class="st1" d="M135.47,165.76c-1.38-9.83-2.71-14.52-3.85-14.33c-1.14,0.19-1.14,5.01,0.19,14.66l0.07,0.47
		c1.33,9.65,2.66,14.35,3.85,14.33c1.19-0.02,1.19-4.83-0.19-14.66L135.47,165.76z"/>
	<path class="st1" d="M188.49,127.29c-2.11,0.48-2.36,6.29-1.57,10.95l0.07,0.43c0.84,4.95,2.56,9.03,4.5,8.75
		c1.53-0.22,2.17-3.21,2.5-7.4l-0.08-0.45C192.68,132.4,190.27,126.89,188.49,127.29z"/>
	<path class="st1" d="M79.36,160.18c1.66-0.28,2.58-2.51,2.27-5.79l-0.05-0.53c-0.22-2.4-1.12-5-3.19-4.48
		c-2.07,0.51-2.51,3.33-2.32,5.64l0.04,0.51C76.39,158.69,77.7,160.46,79.36,160.18z"/>
	<path class="st1" d="M371.81,217.65c-1.05-8.99-27.08-196.85-28.11-201.85s-2.76-9.42-6.41-10.68s-10.43,0.99-14.64,2.72
		C222.35,49.11,122.06,90.38,21.76,131.66c-10.51,4.33-17.34,9.29-13.05,21.17c12.02,33.28,24.11,80.57,36.13,113.85
		c1.53,4.24,3.57,8.99,7.85,10.38c3.9,1.27,8.25-0.98,10.71-4.27c2.45-3.29,3.42-7.42,4.34-11.42c2.8-12.22,5.59-24.44,8.39-36.66
		c0.52-2.28,1.21-4.8,3.19-6.04c1.72-1.07,3.92-0.85,5.93-0.6c35.79,4.52,249.67,19.77,253.67,19.75c4-0.02,21.01,1.88,26.99-2.15
		C371.89,231.65,372.86,226.64,371.81,217.65z M54.97,192.27l-1.93-39.51c2.63-0.72,3.76-5.17,3.51-9.54l5.68-2l3.46,51.73
		L54.97,192.27z M82.59,196.18c-9.3-0.72-14.06-8.2-14.67-16.79l-0.03-0.48c-0.38-5.33,1.2-10.65,4.97-13.44
		c-3.31-0.78-5.69-5.27-6.08-10.63l-0.03-0.48c-0.58-7.99,2.03-17.56,10.25-20.6c8.19-3.03,12.47,5.69,13.45,15.14l0.06,0.57
		c0.66,6.33-0.81,12.29-3.89,14.13c4.24,2.08,6.82,7.92,7.49,14.28l0.06,0.57C95.24,188.69,91.89,196.9,82.59,196.18z M112.39,195.9
		c-1.6-3.91-2.32-7.95-3.14-14.77l-2.69-22.55l-3.4,0.51l-1.99-17.13l3.5-0.91l-1.24-10.35l7.87-6.99l1.92,15.13l4.07-1.05
		l2.45,18.82l-4.19,0.63l3.01,23.73c0.79,6.2,1.86,11.12,4.01,15.58L112.39,195.9z M138.2,198.6c-7.57-0.52-13.17-14.03-15.42-31.11
		l-0.09-0.67c-2.25-17.07-0.48-31.37,6.44-33.2c6.92-1.83,12.63,12.14,15.42,31.18l0.11,0.75
		C147.46,184.59,145.77,199.11,138.2,198.6z M160.86,198.97l-1.51-9.88c-5.38-35.18,8.93-36.88,6.66-51.04
		c-0.65-4.07-2.12-6.79-4.36-6.26c-2.4,0.56-4.86,4.78-6.94,10.46l-5.96-24.11c2.63-8.01,5.22-12.8,9.86-14.51
		c6.34-2.34,12.98,10.08,15.78,27.01c3.04,18.39-0.02,29.24-6.09,41.26l12.9-0.68l4.85,29.36L160.86,198.97z M199.63,203.32
		c-4.24-0.3-7.84-3.79-12.32-10.04l-2.08-23.75c2.72,3.31,5.73,5.78,8.27,5.7c4.35-0.15,4.7-10.84,2.95-21l-0.18-1.04
		c-0.56,7.18-1.67,11.63-4.76,11.86c-5.48,0.41-10.68-10.9-13.35-26.93l-0.12-0.71c-3.07-18.44-1.6-37.15,5.18-39.56
		c7.28-2.59,15.69,15.66,21.4,48.02l0.44,2.48C210.99,181.94,208.18,203.92,199.63,203.32z M247.49,204.45l-15.59-41.26l-1.77-5.04
		l8.42,45.73l-10.82-0.68L207.28,90.15l8.76-3.08l15.59,39.26l1.59,4.37l-8.7-46.62l9.72-3.42l23.59,124.44L247.49,204.45z
		 M278.46,208.86c-9.48-0.67-20.55-30.03-27.23-64.98l-0.41-2.17c-6.71-35.13-7.19-65.33,1.27-68.33c8.44-3,19.51,26.23,27.09,64.52
		l0.47,2.37C287.2,178.34,287.91,209.52,278.46,208.86z M323.26,209.25l-18.77-74.59l11.48,74.13l-11.83-0.75L268.47,68.61
		l11.58-4.08l18.04,73.67l-12.11-75.75l10.46-3.68l19.41,78.13l-13.14-80.34l9.19-3.24l24.5,156.76L323.26,209.25z"/>
	<path class="st1" d="M267.99,139c-2.76-14.13-5.79-27.01-8.27-26.46c-2.48,0.55-0.53,13.41,2.16,27.29l0.62,3.19
		c2.65,13.68,5.67,26.4,8.27,26.29s0.58-13.12-2.14-27.06L267.99,139z"/>
</g>
</svg>
