<svg width="264" height="197" viewBox="0 0 264 197" fill="none" xmlns="http://www.w3.org/2000/svg">
<path d="M58.796 120.461C58.4337 121.763 58.3395 122.638 58.4699 123.687C58.6438 125.068 59.1293 125.698 59.9263 125.647C60.7234 125.596 61.0132 124.902 60.8466 123.564C60.6654 122.095 60.1075 121.271 58.796 120.461Z" fill="#204D8F"/>
<path d="M186.361 73.7828C184.195 74.3036 185.68 88.9731 186.462 96.4453C187.245 103.91 189.23 118.551 191.027 118.45C192.824 118.348 191.716 103.389 190.919 95.7871C190.129 88.1775 188.52 73.262 186.361 73.7828Z" fill="#204D8F"/>
<path d="M96.0185 105.422C94.7794 105.639 94.7359 110.862 95.2359 115.195C95.7359 119.527 96.4822 124.627 98.2285 124.533C99.982 124.439 99.5255 119.195 99.011 114.761C98.4966 110.326 97.2503 105.205 96.0185 105.422Z" fill="#204D8F"/>
<path d="M263.755 154.147C263.031 147.637 244.916 11.6471 244.191 8.03037C243.467 4.41363 242.227 1.20195 239.583 0.276068C236.938 -0.64982 232.018 0.948782 228.96 2.18571C156.131 31.6477 83.2946 61.1025 10.4583 90.5573C2.82102 93.646 -2.14246 97.2049 0.915335 105.82C9.4873 129.944 18.0665 164.194 26.6385 188.318C27.7326 191.385 29.1891 194.835 32.2903 195.855C35.1163 196.788 38.2755 195.183 40.0652 192.81C41.855 190.437 42.5723 187.457 43.2535 184.564C45.3258 175.739 47.3982 166.907 49.4777 158.082C49.8618 156.433 50.369 154.61 51.8182 153.727C53.0717 152.961 54.6586 153.127 56.115 153.322C82.0266 156.729 236.945 168.614 239.844 168.614C242.742 168.614 255.06 170.061 259.408 167.167C263.755 164.274 264.48 160.657 263.755 154.147ZM40.3623 137.098L38.5001 123.217L39.4711 123.122L38.203 113.632L36.993 113.871L35.5293 102.97C36.8191 102.16 37.8625 100.778 38.6233 98.8252L43.9853 96.9734L47.2895 122.349L48.2604 122.254L50.2386 137.524L40.3623 137.098ZM61.6582 139.058C55.3832 138.74 51.5791 134.11 50.4704 125.495C49.869 120.851 50.3762 117.545 51.9848 115.469L51.9559 115.216C50.3835 113.574 49.3473 110.862 48.8546 107.042C47.8184 98.9843 50.1516 93.7762 55.731 91.8015C61.3104 89.8195 64.7812 93.6388 65.9188 102.898C66.4405 107.173 66.2014 110.341 65.1363 112.54L65.1797 112.887C67.2738 114.941 68.6288 118.761 69.2882 124.128C70.5273 134.385 67.9115 139.376 61.6582 139.058ZM85.1641 140.251C80.831 140.027 78.7949 136.447 77.6355 126.862L76.2443 115.296L75.3241 115.419L73.2807 98.4924C74.6357 97.3496 75.0415 93.7545 74.6647 86.3619L80.2223 84.4378L81.3455 93.9136L83.896 93.212L86.3452 113.979L83.7656 114.319L84.041 116.649C84.2873 118.739 84.7148 119.347 85.5336 119.274C85.809 119.245 86.193 119.13 86.6423 118.674L89.3812 138.682C88.4103 139.774 86.9538 140.345 85.1641 140.251ZM100.141 141.018C94.3954 140.729 90.1276 131.709 88.2798 115.998C86.4321 100.286 88.5262 90.5428 94.1128 88.9442C99.6995 87.3456 103.967 96.3586 105.974 113.958C107.982 131.564 105.888 141.307 100.141 141.018ZM115.351 140.259L113.032 119.773C118.394 111.723 120.039 104.359 118.829 93.552C118.264 88.503 117.343 85.002 116.075 83.3889L115.068 84.0833C115.641 85.1539 116.3 88.2715 116.742 92.2716C117.764 101.364 117.858 107.144 115.351 107.505C112.771 107.882 110.634 102.341 109.605 93.2265C108.148 80.3725 110.337 72.4085 115.945 70.4193C121.575 68.4228 125.176 75.1572 126.901 90.6875C127.85 99.2447 127.589 104.655 125.546 111.187L123.249 115.39L123.749 119.882L125.568 119.752C126.741 119.665 127.285 118.262 127.437 115.303L129.256 115.129L132.118 140.968L115.351 140.259ZM141.067 143.101C139.103 143 137.125 141.93 135.118 139.6L132.799 114.681C134.082 116.301 135.813 117.148 137.081 117.046C139.748 116.829 140.943 112.323 140.444 105.907L140.342 105.69C139.835 110.515 138.726 112.771 136.835 112.967C133.277 113.328 130.386 106.073 128.901 92.6333C127.075 76.1048 129.096 65.7464 134.234 63.9236C140.443 61.7174 145.414 74.8751 148.168 100.351C151.131 127.694 148.776 143.499 141.067 143.101ZM171.405 142.624L160.363 87.6928L160.261 87.7145L164.196 124.511L165.196 124.475L167.116 142.45L158.174 142.074L155.928 121.213L157.928 121.104L153.617 80.9078L151.653 81.3852L149.407 60.5238L161.058 56.4948L167.254 96.6985L167.355 96.6841L163.986 55.4821L171.666 52.8274L174.101 75.9095L171.152 76.6328L178.166 142.906L171.405 142.624ZM193.89 145.792C187.564 145.467 182.202 128.128 178.978 97.5521C175.753 66.9833 177.383 48.603 183.499 46.4258C189.615 44.2557 194.977 61.6016 198.411 94.6587C201.846 127.737 200.223 146.118 193.89 145.792ZM224.192 144.845L217.852 112.677L217.751 112.685L217.99 144.584L211.215 144.302L200.621 81.501L199.636 81.6963L195.781 44.4944L204.679 41.4202L208.65 79.9168L213.483 107.31L213.584 107.303L211.686 79.3165L210.628 79.5262L206.635 40.7475L214.678 37.9698L218.772 77.9132L223.671 106.348L223.772 106.341L221.787 77.32L220.75 77.5225L216.635 37.2899L225.823 34.1144L230.054 75.678L228.033 76.0758L231.032 145.127L224.192 144.845Z" fill="#204D8F"/>
<path d="M58.9119 106.717C58.738 105.306 58.2598 104.728 57.47 104.916C56.6802 105.104 56.3976 105.849 56.5642 107.165C56.7454 108.612 57.2961 109.379 58.6003 110.073C58.9626 108.706 59.0496 107.787 58.9119 106.717Z" fill="#204D8F"/>
<path d="M136.458 83.8374C134.813 84.4522 134.9 89.0021 135.386 93.3928C135.864 97.7835 137.502 97.5231 137.871 97.4363C138.241 97.3495 138.813 96.1271 139.023 93.4579C138.451 90.022 138.11 83.2225 136.458 83.8374Z" fill="#204D8F"/>
</svg>
