<?xml version="1.0" encoding="utf-8"?>
<!-- Generator: Adobe Illustrator 24.0.3, SVG Export Plug-In . SVG Version: 6.00 Build 0)  -->
<svg version="1.1" id="Layer_1" xmlns="http://www.w3.org/2000/svg" xmlns:xlink="http://www.w3.org/1999/xlink" x="0px" y="0px"
	 viewBox="0 0 495 367" style="enable-background:new 0 0 495 367;" xml:space="preserve">
<style type="text/css">
	.st0{fill:#FFE2BE;}
	.st1{fill:#204D8F;}
</style>
<g>
	<path class="st0" d="M160.8,223.2c-1.5,0.1-2.3-1-2.8-4.9l-0.5-4.4l4.8-0.6l-4.6-38.9l-4.8,1.3l-2.1-17.7l-10.4,3.6
		c0.7,13.8-0.1,20.6-2.6,22.7l3.8,31.7l1.7-0.2l2.6,21.6c2.2,17.9,6,24.6,14.1,25.1c3.3,0.2,6.1-0.9,7.9-2.9l-5.1-37.4
		C162.1,222.9,161.4,223.1,160.8,223.2z"/>
	<path class="st0" d="M176.9,166.4c-10.5,3-14.4,21.2-10.9,50.6c3.5,29.4,11.4,46.3,22.2,46.8c10.8,0.5,14.7-17.7,10.9-50.6
		C195.3,180.3,187.4,163.4,176.9,166.4z M184.6,233c-3.3,0.2-4.7-9.4-5.6-17.5c-0.9-8.1-0.9-17.9,1.5-18.3c2.3-0.4,4.6,9.2,5.6,17.5
		S187.9,232.9,184.6,233z"/>
	<path class="st0" d="M239.3,215.8c-0.3,5.5-1.3,8.2-3.5,8.3l-3.4,0.2l-0.9-8.4l4.3-7.9c3.8-12.2,4.3-22.3,2.5-38.4
		c-3.2-29.1-10-41.7-20.5-37.9c-10.5,3.7-14.6,18.6-11.9,42.7c1.9,17.1,5.9,27.4,10.8,26.7c4.7-0.7,4.5-11.5,2.6-28.5
		c-0.8-7.5-2.1-13.3-3.1-15.3l1.9-1.3c2.4,3,4.1,9.6,5.2,19c2.3,20.2-0.8,34-10.8,49.1l4.3,38.3l31.4,1.3l-5.4-48.3L239.3,215.8z"/>
	<path class="st0" d="M89.3,228.9l-6.2-47.5l-10,3.5c-1.4,3.7-3.4,6.2-5.8,7.8l2.7,20.4l2.3-0.4l2.4,17.8l-1.8,0.2l3.5,26l18.5,0.8
		l-3.7-28.6L89.3,228.9z"/>
	<path class="st0" d="M122.8,211.2l-0.1-0.6c2-4.1,2.4-10,1.5-18c-2.1-17.3-8.6-24.5-19.1-20.8c-10.4,3.7-14.8,13.4-12.9,28.5
		c0.9,7.1,2.9,12.2,5.8,15.3l0.1,0.5c-3,3.9-4,10.1-2.8,18.8c2.1,16.1,9.2,24.8,20.9,25.4c11.7,0.6,16.6-8.7,14.3-27.9
		C129.2,222.2,126.7,215.1,122.8,211.2z M106.6,200.5c-0.3-2.5,0.2-3.9,1.7-4.2c1.5-0.4,2.4,0.7,2.7,3.4c0.3,2,0.1,3.7-0.6,6.3
		C108,204.7,107,203.2,106.6,200.5z M112.9,235.1c-1.5,0.1-2.4-1.1-2.7-3.7c-0.2-2-0.1-3.6,0.6-6c2.5,1.5,3.5,3.1,3.8,5.8
		C115,233.7,114.4,235,112.9,235.1z"/>
	<path class="st0" d="M252,119.6c-9.6,3.4-13.4,22.8-10,53.7c2.8,25.1,8.2,38.7,14.8,38c3.5-0.4,5.6-4.6,6.6-13.6l0.2,0.4
		c0.9,12-1.3,20.4-6.3,20.8c-2.4,0.2-5.6-1.4-8-4.4l4.3,46.6c3.8,4.4,7.5,6.4,11.1,6.6c14.4,0.7,18.8-28.8,13.3-80
		C272.9,140.1,263.6,115.5,252,119.6z M258.8,182.3c-0.7,0.2-3.8,0.6-4.7-7.6c-0.9-8.2-1.1-16.7,2-17.9c3.1-1.2,3.7,11.6,4.8,18
		C260.5,179.9,259.5,182.2,258.8,182.3z"/>
	<polygon class="st0" points="431.3,141.6 423.4,63.8 406.2,69.8 413.9,145.1 415.8,144.7 419.5,199 419.3,199 410.2,145.8 
		402.5,71 387.5,76.2 394.9,148.8 396.9,148.4 400.5,200.8 400.3,200.8 391.2,149.5 383.8,77.5 367.1,83.3 374.4,152.9 376.2,152.5 
		396,270 408.7,270.5 408.3,210.9 408.4,210.8 420.3,271 433.1,271.6 427.5,142.4 	"/>
	<path class="st0" d="M344.2,86.9c-11.4,4.1-14.5,38.5-8.5,95.7c6,57.2,16.1,89.7,27.9,90.3c11.9,0.6,14.9-33.8,8.5-95.7
		C365.6,115.3,355.6,82.8,344.2,86.9z M358.2,221.6c-3.4,0.2-7.1-27.2-8.5-41.2c-1.5-14-4.2-41.4-0.2-42.4c4-1,7,26.9,8.5,41.2
		C359.5,193.5,361.6,221.5,358.2,221.6z"/>
	<polygon class="st0" points="326.6,142 322,98.9 307.6,103.8 314,180.9 313.8,180.9 302.2,105.7 280.4,113.3 284.6,152.3 
		288.2,151.4 296.3,226.6 292.6,226.8 296.8,265.9 313.5,266.6 309.9,232.9 308,233 300.7,164.1 300.9,164.1 321.5,266.9 
		334.2,267.4 321.1,143.4 	"/>
</g>
<path class="st1" d="M110.8,225.4c-0.7,2.4-0.9,4.1-0.6,6c0.3,2.6,1.2,3.8,2.7,3.7c1.5-0.1,2-1.4,1.7-3.9
	C114.3,228.5,113.3,226.9,110.8,225.4z"/>
<path class="st1" d="M349.5,138.1c-4.1,1-1.3,28.4,0.2,42.4c1.5,14,5.2,41.4,8.5,41.2c3.4-0.2,1.3-28.2-0.2-42.4
	C356.6,165,353.6,137.1,349.5,138.1z"/>
<path class="st1" d="M180.5,197.3c-2.3,0.4-2.4,10.2-1.5,18.3c0.9,8.1,2.3,17.6,5.6,17.5c3.3-0.2,2.4-10,1.5-18.3
	S182.8,196.9,180.5,197.3z"/>
<path class="st1" d="M494.3,288.4C493,276.3,459.1,21.8,457.7,15c-1.4-6.8-3.7-12.8-8.6-14.5c-4.9-1.7-14.2,1.3-19.9,3.6
	C293,59.2,156.7,114.3,20.4,169.5C6.1,175.2-3.2,181.9,2.5,198c16,45.1,32.1,109.2,48.1,154.4c2,5.7,4.8,12.2,10.6,14.1
	c5.3,1.7,11.2-1.3,14.5-5.7c3.3-4.4,4.7-10,6-15.4c3.9-16.5,7.8-33,11.6-49.6c0.7-3.1,1.7-6.5,4.4-8.1c2.3-1.4,5.3-1.1,8-0.8
	c48.5,6.4,338.4,28.6,343.8,28.6c5.4,0,28.5,2.7,36.6-2.7C494.3,307.4,495.7,300.6,494.3,288.4z M76.3,256.5l-3.5-26l1.8-0.2
	l-2.4-17.8l-2.3,0.4l-2.7-20.4c2.4-1.5,4.4-4.1,5.8-7.8l10-3.5l6.2,47.5l1.8-0.2l3.7,28.6L76.3,256.5z M116.2,260.2
	c-11.7-0.6-18.9-9.3-20.9-25.4c-1.1-8.7-0.2-14.9,2.8-18.8l-0.1-0.5c-2.9-3.1-4.9-8.1-5.8-15.3c-1.9-15.1,2.4-24.8,12.9-28.5
	c10.4-3.7,16.9,3.4,19.1,20.8c1,8,0.5,13.9-1.5,18l0.1,0.6c3.9,3.8,6.5,11,7.7,21C132.8,251.5,127.9,260.8,116.2,260.2z
	 M160.2,262.4c-8.1-0.4-11.9-7.1-14.1-25.1l-2.6-21.6l-1.7,0.2l-3.8-31.7c2.5-2.1,3.3-8.9,2.6-22.7l10.4-3.6l2.1,17.7l4.8-1.3
	l4.6,38.9l-4.8,0.6l0.5,4.4c0.5,3.9,1.3,5,2.8,4.9c0.5-0.1,1.2-0.3,2.1-1.1l5.1,37.4C166.2,261.5,163.5,262.6,160.2,262.4z
	 M188.2,263.9c-10.8-0.5-18.7-17.4-22.2-46.8c-3.5-29.4,0.5-47.6,10.9-50.6c10.5-3,18.4,13.9,22.2,46.8
	C202.9,246.2,198.9,264.4,188.2,263.9z M216.6,262.5l-4.3-38.3c10-15.1,13.1-28.8,10.8-49.1c-1.1-9.4-2.8-16-5.2-19l-1.9,1.3
	c1.1,2,2.3,7.8,3.1,15.3c1.9,17,2.1,27.8-2.6,28.5c-4.8,0.7-8.8-9.7-10.8-26.7c-2.7-24.1,1.4-39,11.9-42.7
	c10.5-3.7,17.3,8.9,20.5,37.9c1.8,16,1.3,26.1-2.5,38.4l-4.3,7.9l0.9,8.4l3.4-0.2c2.2-0.2,3.2-2.8,3.5-8.3l3.4-0.3l5.4,48.3
	L216.6,262.5z M264.8,267.8c-3.7-0.2-7.4-2.2-11.1-6.6l-4.3-46.6c2.4,3,5.6,4.6,8,4.4c5-0.4,7.2-8.8,6.3-20.8l-0.2-0.4
	c-0.9,9-3,13.3-6.6,13.6c-6.7,0.7-12.1-12.9-14.8-38c-3.4-30.9,0.4-50.3,10-53.7c11.6-4.1,20.9,20.5,26.1,68.2
	C283.6,238.9,279.2,268.5,264.8,267.8z M321.5,266.9l-20.7-102.8l-0.2,0L308,233l1.9-0.1l3.6,33.6l-16.7-0.7l-4.2-39l3.7-0.2
	l-8.1-75.2l-3.7,0.9l-4.2-39l21.8-7.5l11.6,75.2l0.2,0l-6.3-77.1l14.4-5l4.6,43.2l-5.5,1.4l13.1,124L321.5,266.9z M363.6,272.8
	c-11.8-0.6-21.9-33.1-27.9-90.3c-6-57.2-3-91.6,8.5-95.7c11.4-4.1,21.5,28.4,27.9,90.3C378.5,239,375.5,273.4,363.6,272.8z
	 M420.3,271l-11.9-60.2l-0.2,0l0.4,59.7L396,270l-19.8-117.5l-1.8,0.4l-7.2-69.6l16.7-5.8l7.4,72l9,51.3l0.2,0l-3.6-52.4l-2,0.4
	l-7.5-72.6l15.1-5.2l7.7,74.7l9.2,53.2l0.2,0l-3.7-54.3l-1.9,0.4l-7.7-75.3l17.2-5.9l7.9,77.8l-3.8,0.7l5.6,129.2L420.3,271z"/>
<path class="st1" d="M111,199.7c-0.3-2.6-1.2-3.7-2.7-3.4c-1.5,0.4-2,1.7-1.7,4.2c0.3,2.7,1.4,4.1,3.8,5.4
	C111.1,203.4,111.3,201.7,111,199.7z"/>
<path class="st1" d="M256.1,156.9c-3.1,1.1-2.9,9.7-2,17.9c0.9,8.2,4,7.7,4.7,7.6c0.7-0.2,1.8-2.4,2.2-7.4
	C259.9,168.5,259.2,155.7,256.1,156.9z"/>
</svg>
