<svg width="1259" height="401" viewBox="0 0 1259 401" fill="none" xmlns="http://www.w3.org/2000/svg">
<path d="M486.02 249.408C485.342 251.844 485.166 253.482 485.41 255.445C485.735 258.03 486.644 259.208 488.135 259.113C489.627 259.018 490.169 257.719 489.857 255.215C489.518 252.467 488.474 250.924 486.02 249.408Z" fill="#204D8F"/>
<path d="M724.722 162.064C720.668 163.038 723.448 190.488 724.912 204.47C726.376 218.439 730.091 245.835 733.454 245.645C736.817 245.456 734.742 217.464 733.251 203.239C731.773 188.999 728.763 161.089 724.722 162.064Z" fill="#204D8F"/>
<path d="M555.671 221.268C553.353 221.674 553.272 231.446 554.207 239.554C555.143 247.662 556.539 257.204 559.807 257.028C563.088 256.852 562.234 247.039 561.271 238.742C560.309 230.445 557.976 220.862 555.671 221.268Z" fill="#204D8F"/>
<mask id="path-4-outside-1" maskUnits="userSpaceOnUse" x="367" y="15" width="513" height="386" fill="black">
<rect fill="white" x="367" y="15" width="513" height="386"/>
<path d="M869.543 312.443C868.188 300.261 834.291 45.7943 832.935 39.0266C831.579 32.2589 829.26 26.2491 824.311 24.5166C819.362 22.784 810.156 25.7754 804.434 28.0899C668.155 83.2198 531.862 138.336 395.57 193.452C381.279 199.232 371.991 205.891 377.713 222.012C393.753 267.153 409.806 331.243 425.846 376.384C427.894 382.123 430.619 388.579 436.422 390.488C441.71 392.234 447.622 389.229 450.971 384.789C454.32 380.35 455.662 374.773 456.937 369.359C460.814 352.846 464.692 336.319 468.584 319.806C469.302 316.72 470.251 313.309 472.963 311.657C475.309 310.223 478.278 310.534 481.003 310.899C529.49 317.275 819.376 339.513 824.799 339.513C830.223 339.513 853.273 342.22 861.408 336.806C869.543 331.392 870.899 324.624 869.543 312.443ZM451.527 280.539L448.042 254.565L449.859 254.389L447.486 236.63L445.222 237.077L442.483 216.679C444.896 215.163 446.849 212.578 448.273 208.923L458.306 205.458L464.489 252.941L466.306 252.765L470.007 281.338L451.527 280.539ZM491.376 284.208C479.634 283.612 472.516 274.949 470.441 258.829C469.316 250.139 470.265 243.953 473.275 240.068L473.221 239.595C470.278 236.522 468.34 231.446 467.418 224.3C465.479 209.221 469.845 199.476 480.285 195.781C490.725 192.072 497.22 199.219 499.348 216.544C500.325 224.543 499.877 230.472 497.884 234.587L497.965 235.236C501.884 239.08 504.419 246.227 505.653 256.27C507.972 275.464 503.077 284.803 491.376 284.208ZM535.361 286.441C527.252 286.021 523.442 279.321 521.273 261.387L518.67 239.744L516.948 239.974L513.124 208.301C515.66 206.162 516.419 199.435 515.714 185.602L526.113 182.001L528.215 199.733L532.988 198.42L537.571 237.28L532.744 237.916L533.259 242.275C533.72 246.187 534.52 247.323 536.052 247.188C536.567 247.134 537.286 246.917 538.127 246.065L543.252 283.504C541.435 285.548 538.71 286.617 535.361 286.441ZM563.387 287.876C552.634 287.334 544.648 270.456 541.191 241.057C537.733 211.658 541.652 193.425 552.106 190.434C562.559 187.443 570.546 204.308 574.301 237.24C578.057 270.185 574.139 288.417 563.387 287.876ZM591.846 286.454L587.508 248.122C597.541 233.057 600.619 219.278 598.355 199.056C597.297 189.608 595.575 183.057 593.202 180.039L591.318 181.338C592.389 183.341 593.623 189.175 594.45 196.66C596.361 213.674 596.538 224.489 591.846 225.166C587.019 225.87 583.02 215.502 581.094 198.447C578.369 174.395 582.464 159.492 592.958 155.77C603.493 152.034 610.232 164.635 613.459 193.696C615.235 209.708 614.747 219.833 610.924 232.056L606.625 239.92L607.561 248.325L610.964 248.081C613.161 247.919 614.178 245.293 614.462 239.757L617.866 239.432L623.221 287.781L591.846 286.454ZM639.966 291.774C636.292 291.584 632.59 289.581 628.835 285.223L624.496 238.593C626.896 241.625 630.136 243.209 632.509 243.019C637.499 242.613 639.736 234.181 638.8 222.175L638.611 221.769C637.661 230.797 635.587 235.02 632.048 235.385C625.391 236.062 619.981 222.486 617.201 197.337C613.784 166.409 617.567 147.026 627.18 143.615C638.8 139.487 648.102 164.108 653.254 211.779C658.8 262.943 654.393 292.518 639.966 291.774ZM696.737 290.881L676.073 188.092L675.884 188.133L683.246 256.988L685.117 256.92L688.71 290.556L671.979 289.852L667.775 250.816L671.518 250.613L663.45 175.396L659.776 176.289L655.573 137.253L677.375 129.714L688.968 204.944L689.158 204.917L682.853 127.819L697.225 122.852L701.781 166.043L696.262 167.397L709.387 291.408L696.737 290.881ZM738.81 296.809C726.973 296.2 716.94 263.756 710.906 206.541C704.872 149.34 707.923 114.947 719.367 110.873C730.81 106.812 740.844 139.27 747.27 201.127C753.697 263.025 750.66 297.418 738.81 296.809ZM795.513 295.036L783.649 234.844L783.459 234.857L783.906 294.549L771.229 294.021L751.406 176.506L749.562 176.872L742.349 107.259L758.999 101.506L766.429 173.542L775.473 224.801L775.663 224.787L772.11 172.418L770.131 172.811L762.66 100.247L777.71 95.0498L785.371 169.792L794.536 223L794.726 222.987L791.011 168.683L789.072 169.062L781.371 93.7774L798.563 87.8354L806.482 165.61L802.699 166.354L808.312 295.564L795.513 295.036Z"/>
</mask>
<path d="M869.543 312.443C868.188 300.261 834.291 45.7943 832.935 39.0266C831.579 32.2589 829.26 26.2491 824.311 24.5166C819.362 22.784 810.156 25.7754 804.434 28.0899C668.155 83.2198 531.862 138.336 395.57 193.452C381.279 199.232 371.991 205.891 377.713 222.012C393.753 267.153 409.806 331.243 425.846 376.384C427.894 382.123 430.619 388.579 436.422 390.488C441.71 392.234 447.622 389.229 450.971 384.789C454.32 380.35 455.662 374.773 456.937 369.359C460.814 352.846 464.692 336.319 468.584 319.806C469.302 316.72 470.251 313.309 472.963 311.657C475.309 310.223 478.278 310.534 481.003 310.899C529.49 317.275 819.376 339.513 824.799 339.513C830.223 339.513 853.273 342.22 861.408 336.806C869.543 331.392 870.899 324.624 869.543 312.443ZM451.527 280.539L448.042 254.565L449.859 254.389L447.486 236.63L445.222 237.077L442.483 216.679C444.896 215.163 446.849 212.578 448.273 208.923L458.306 205.458L464.489 252.941L466.306 252.765L470.007 281.338L451.527 280.539ZM491.376 284.208C479.634 283.612 472.516 274.949 470.441 258.829C469.316 250.139 470.265 243.953 473.275 240.068L473.221 239.595C470.278 236.522 468.34 231.446 467.418 224.3C465.479 209.221 469.845 199.476 480.285 195.781C490.725 192.072 497.22 199.219 499.348 216.544C500.325 224.543 499.877 230.472 497.884 234.587L497.965 235.236C501.884 239.08 504.419 246.227 505.653 256.27C507.972 275.464 503.077 284.803 491.376 284.208ZM535.361 286.441C527.252 286.021 523.442 279.321 521.273 261.387L518.67 239.744L516.948 239.974L513.124 208.301C515.66 206.162 516.419 199.435 515.714 185.602L526.113 182.001L528.215 199.733L532.988 198.42L537.571 237.28L532.744 237.916L533.259 242.275C533.72 246.187 534.52 247.323 536.052 247.188C536.567 247.134 537.286 246.917 538.127 246.065L543.252 283.504C541.435 285.548 538.71 286.617 535.361 286.441ZM563.387 287.876C552.634 287.334 544.648 270.456 541.191 241.057C537.733 211.658 541.652 193.425 552.106 190.434C562.559 187.443 570.546 204.308 574.301 237.24C578.057 270.185 574.139 288.417 563.387 287.876ZM591.846 286.454L587.508 248.122C597.541 233.057 600.619 219.278 598.355 199.056C597.297 189.608 595.575 183.057 593.202 180.039L591.318 181.338C592.389 183.341 593.623 189.175 594.45 196.66C596.361 213.674 596.538 224.489 591.846 225.166C587.019 225.87 583.02 215.502 581.094 198.447C578.369 174.395 582.464 159.492 592.958 155.77C603.493 152.034 610.232 164.635 613.459 193.696C615.235 209.708 614.747 219.833 610.924 232.056L606.625 239.92L607.561 248.325L610.964 248.081C613.161 247.919 614.178 245.293 614.462 239.757L617.866 239.432L623.221 287.781L591.846 286.454ZM639.966 291.774C636.292 291.584 632.59 289.581 628.835 285.223L624.496 238.593C626.896 241.625 630.136 243.209 632.509 243.019C637.499 242.613 639.736 234.181 638.8 222.175L638.611 221.769C637.661 230.797 635.587 235.02 632.048 235.385C625.391 236.062 619.981 222.486 617.201 197.337C613.784 166.409 617.567 147.026 627.18 143.615C638.8 139.487 648.102 164.108 653.254 211.779C658.8 262.943 654.393 292.518 639.966 291.774ZM696.737 290.881L676.073 188.092L675.884 188.133L683.246 256.988L685.117 256.92L688.71 290.556L671.979 289.852L667.775 250.816L671.518 250.613L663.45 175.396L659.776 176.289L655.573 137.253L677.375 129.714L688.968 204.944L689.158 204.917L682.853 127.819L697.225 122.852L701.781 166.043L696.262 167.397L709.387 291.408L696.737 290.881ZM738.81 296.809C726.973 296.2 716.94 263.756 710.906 206.541C704.872 149.34 707.923 114.947 719.367 110.873C730.81 106.812 740.844 139.27 747.27 201.127C753.697 263.025 750.66 297.418 738.81 296.809ZM795.513 295.036L783.649 234.844L783.459 234.857L783.906 294.549L771.229 294.021L751.406 176.506L749.562 176.872L742.349 107.259L758.999 101.506L766.429 173.542L775.473 224.801L775.663 224.787L772.11 172.418L770.131 172.811L762.66 100.247L777.71 95.0498L785.371 169.792L794.536 223L794.726 222.987L791.011 168.683L789.072 169.062L781.371 93.7774L798.563 87.8354L806.482 165.61L802.699 166.354L808.312 295.564L795.513 295.036Z" fill="#204D8F"/>
<path d="M869.543 312.443C868.188 300.261 834.291 45.7943 832.935 39.0266C831.579 32.2589 829.26 26.2491 824.311 24.5166C819.362 22.784 810.156 25.7754 804.434 28.0899C668.155 83.2198 531.862 138.336 395.57 193.452C381.279 199.232 371.991 205.891 377.713 222.012C393.753 267.153 409.806 331.243 425.846 376.384C427.894 382.123 430.619 388.579 436.422 390.488C441.71 392.234 447.622 389.229 450.971 384.789C454.32 380.35 455.662 374.773 456.937 369.359C460.814 352.846 464.692 336.319 468.584 319.806C469.302 316.72 470.251 313.309 472.963 311.657C475.309 310.223 478.278 310.534 481.003 310.899C529.49 317.275 819.376 339.513 824.799 339.513C830.223 339.513 853.273 342.22 861.408 336.806C869.543 331.392 870.899 324.624 869.543 312.443ZM451.527 280.539L448.042 254.565L449.859 254.389L447.486 236.63L445.222 237.077L442.483 216.679C444.896 215.163 446.849 212.578 448.273 208.923L458.306 205.458L464.489 252.941L466.306 252.765L470.007 281.338L451.527 280.539ZM491.376 284.208C479.634 283.612 472.516 274.949 470.441 258.829C469.316 250.139 470.265 243.953 473.275 240.068L473.221 239.595C470.278 236.522 468.34 231.446 467.418 224.3C465.479 209.221 469.845 199.476 480.285 195.781C490.725 192.072 497.22 199.219 499.348 216.544C500.325 224.543 499.877 230.472 497.884 234.587L497.965 235.236C501.884 239.08 504.419 246.227 505.653 256.27C507.972 275.464 503.077 284.803 491.376 284.208ZM535.361 286.441C527.252 286.021 523.442 279.321 521.273 261.387L518.67 239.744L516.948 239.974L513.124 208.301C515.66 206.162 516.419 199.435 515.714 185.602L526.113 182.001L528.215 199.733L532.988 198.42L537.571 237.28L532.744 237.916L533.259 242.275C533.72 246.187 534.52 247.323 536.052 247.188C536.567 247.134 537.286 246.917 538.127 246.065L543.252 283.504C541.435 285.548 538.71 286.617 535.361 286.441ZM563.387 287.876C552.634 287.334 544.648 270.456 541.191 241.057C537.733 211.658 541.652 193.425 552.106 190.434C562.559 187.443 570.546 204.308 574.301 237.24C578.057 270.185 574.139 288.417 563.387 287.876ZM591.846 286.454L587.508 248.122C597.541 233.057 600.619 219.278 598.355 199.056C597.297 189.608 595.575 183.057 593.202 180.039L591.318 181.338C592.389 183.341 593.623 189.175 594.45 196.66C596.361 213.674 596.538 224.489 591.846 225.166C587.019 225.87 583.02 215.502 581.094 198.447C578.369 174.395 582.464 159.492 592.958 155.77C603.493 152.034 610.232 164.635 613.459 193.696C615.235 209.708 614.747 219.833 610.924 232.056L606.625 239.92L607.561 248.325L610.964 248.081C613.161 247.919 614.178 245.293 614.462 239.757L617.866 239.432L623.221 287.781L591.846 286.454ZM639.966 291.774C636.292 291.584 632.59 289.581 628.835 285.223L624.496 238.593C626.896 241.625 630.136 243.209 632.509 243.019C637.499 242.613 639.736 234.181 638.8 222.175L638.611 221.769C637.661 230.797 635.587 235.02 632.048 235.385C625.391 236.062 619.981 222.486 617.201 197.337C613.784 166.409 617.567 147.026 627.18 143.615C638.8 139.487 648.102 164.108 653.254 211.779C658.8 262.943 654.393 292.518 639.966 291.774ZM696.737 290.881L676.073 188.092L675.884 188.133L683.246 256.988L685.117 256.92L688.71 290.556L671.979 289.852L667.775 250.816L671.518 250.613L663.45 175.396L659.776 176.289L655.573 137.253L677.375 129.714L688.968 204.944L689.158 204.917L682.853 127.819L697.225 122.852L701.781 166.043L696.262 167.397L709.387 291.408L696.737 290.881ZM738.81 296.809C726.973 296.2 716.94 263.756 710.906 206.541C704.872 149.34 707.923 114.947 719.367 110.873C730.81 106.812 740.844 139.27 747.27 201.127C753.697 263.025 750.66 297.418 738.81 296.809ZM795.513 295.036L783.649 234.844L783.459 234.857L783.906 294.549L771.229 294.021L751.406 176.506L749.562 176.872L742.349 107.259L758.999 101.506L766.429 173.542L775.473 224.801L775.663 224.787L772.11 172.418L770.131 172.811L762.66 100.247L777.71 95.0498L785.371 169.792L794.536 223L794.726 222.987L791.011 168.683L789.072 169.062L781.371 93.7774L798.563 87.8354L806.482 165.61L802.699 166.354L808.312 295.564L795.513 295.036Z" stroke="#FFE2BE" stroke-width="18" mask="url(#path-4-outside-1)"/>
<path d="M486.237 223.691C485.912 221.051 485.017 219.968 483.539 220.32C482.061 220.672 481.532 222.066 481.844 224.53C482.183 227.237 483.213 228.672 485.654 229.971C486.332 227.413 486.495 225.694 486.237 223.691Z" fill="#204D8F"/>
<path d="M631.343 180.878C628.265 182.028 628.428 190.542 629.336 198.758C630.231 206.974 633.295 206.487 633.987 206.325C634.678 206.162 635.75 203.875 636.143 198.88C635.072 192.451 634.434 179.727 631.343 180.878Z" fill="#204D8F"/>
<path d="M912.334 274.265C912.334 251.38 883.009 249.31 883.009 239.19C883.009 235.97 884.734 234.36 887.149 234.36C891.059 234.36 891.864 237.81 891.634 243.79H912.104C912.794 231.025 907.504 217.57 887.609 217.57C869.439 217.57 861.619 228.265 861.619 241.145C861.619 262.88 890.944 265.985 890.944 276.335C890.944 279.555 889.564 281.165 886.114 281.165C882.549 281.165 880.364 278.635 880.709 270.7H860.124C859.204 289.215 867.139 297.955 887.034 297.955C904.974 297.955 912.334 286.34 912.334 274.265ZM968.188 249.77V239.535C968.188 226.885 959.448 219.41 947.603 219.41H916.323V296H939.438V269.895H947.603C959.448 269.895 968.188 262.42 968.188 249.77ZM946.453 251.15C946.453 253.795 945.073 254.83 942.888 254.83H939.438V235.74H942.888C945.073 235.74 946.453 236.89 946.453 239.535V251.15ZM1018.6 296V277.37H995.365V265.065H1010.2V248.85H995.365V237.12H1018.6V219.41H972.25V296H1018.6ZM1076.25 296L1061.07 219.41H1034.62L1019.1 296H1039.91L1041.75 285.305H1052.1L1053.6 296H1076.25ZM1050.26 271.16H1044.05L1047.62 248.16L1050.26 271.16ZM1135.42 296L1121.85 253.335L1134.85 219.41H1111.62L1101.27 250.575V219.41H1078.15V296H1101.27V273.805L1104.14 267.48L1111.16 296H1135.42ZM1188.83 274.265C1188.83 251.38 1159.5 249.31 1159.5 239.19C1159.5 235.97 1161.23 234.36 1163.64 234.36C1167.55 234.36 1168.36 237.81 1168.13 243.79H1188.6C1189.29 231.025 1184 217.57 1164.1 217.57C1145.93 217.57 1138.11 228.265 1138.11 241.145C1138.11 262.88 1167.44 265.985 1167.44 276.335C1167.44 279.555 1166.06 281.165 1162.61 281.165C1159.04 281.165 1156.86 278.635 1157.2 270.7H1136.62C1135.7 289.215 1143.63 297.955 1163.53 297.955C1181.47 297.955 1188.83 286.34 1188.83 274.265Z" fill="#204D8F"/>
<path d="M963.969 355.11V311.41H928.434V352.235C928.434 361.78 925.789 365.92 916.244 365.92C906.699 365.92 903.824 361.78 903.824 352.235V311.41H863.804V355.11C863.804 375.12 878.064 390.875 914.174 390.875C950.399 390.875 963.969 375.12 963.969 355.11ZM1068.75 338.205V337.055C1068.75 323.14 1057.6 311.41 1034.48 311.41H973.764V388H1013.78V364.77H1035.4C1058.4 364.77 1068.75 352.12 1068.75 338.205ZM1028.27 341.655C1028.27 345.68 1026.43 347.98 1020.45 347.98H1013.78V334.985H1020.45C1026.43 334.985 1028.27 337.055 1028.27 341.31V341.655Z" fill="#204D8F"/>
<path d="M112.949 28.41H73.1593L59.0143 50.72L44.2943 28.41H0.0192845L36.0143 79.01V105H76.0343V79.01L112.949 28.41ZM217.29 67.28V65.9C217.29 43.59 198.085 25.535 165.31 25.535C132.42 25.535 113.215 43.59 113.215 65.9V67.28C113.215 89.475 132.42 107.875 165.31 107.875C198.085 107.875 217.29 89.475 217.29 67.28ZM176.465 67.625C176.465 76.02 174.625 83.84 165.31 83.84C155.995 83.84 154.04 76.02 154.04 67.625V65.67C154.04 57.16 155.995 49.34 165.31 49.34C174.625 49.34 176.465 57.16 176.465 65.67V67.625ZM324.391 72.11V28.41H288.856V69.235C288.856 78.78 286.211 82.92 276.666 82.92C267.121 82.92 264.246 78.78 264.246 69.235V28.41H224.226V72.11C224.226 92.12 238.486 107.875 274.596 107.875C310.821 107.875 324.391 92.12 324.391 72.11ZM434.006 105V28.41H398.011V58.08L395.366 55.205L366.616 28.41H334.186V105H370.066V75.1L372.941 78.435L399.736 105H434.006ZM542.222 105V63.485H494.497V77.055H512.667V77.515C510.137 81.31 505.307 83.84 499.327 83.84C488.862 83.84 482.307 77.63 482.307 68.775V68.085C482.307 58.195 490.357 51.065 503.007 51.065C511.977 51.065 519.682 53.25 528.307 57.16L540.382 34.85C528.652 29.1 514.277 25.535 495.187 25.535C464.482 25.535 441.482 42.325 441.482 66.36V67.74C441.482 92.12 463.447 107.875 490.242 107.875C500.822 107.875 511.057 104.54 518.187 98.1L519.682 105H542.222Z" fill="#204D8F"/>
<path d="M83.2093 196L68.0293 119.41H41.5793L26.0543 196H46.8693L48.7093 185.305H59.0593L60.5543 196H83.2093ZM57.2193 171.16H51.0093L54.5743 148.16L57.2193 171.16ZM159.169 196V119.41H130.419L124.784 146.435L122.829 156.785L120.759 146.435L115.009 119.41H85.1086V196H104.314V154.6L106.959 167.365L112.709 196H127.774L134.099 167.365L136.974 154.6V196H159.169ZM211.302 196V177.37H188.072V165.065H202.907V148.85H188.072V137.12H211.302V119.41H164.957V196H211.302ZM270.686 196V195.655C269.306 191.975 268.041 188.065 268.041 183.235V169.895C268.041 164.835 264.821 160.235 257.921 158.97C265.166 157.13 267.696 152.645 267.696 147.93V136.89C267.696 126.31 258.956 119.41 246.651 119.41H215.831V196H238.831V167.02H241.936C245.386 167.02 246.306 169.32 246.306 171.965V184.155C246.306 189.675 247.916 196 251.136 196H270.686ZM245.731 148.85C245.731 151.61 244.581 152.645 242.281 152.645H238.831V135.74H242.281C244.581 135.74 245.731 136.775 245.731 139.535V148.85ZM296.444 196V119.41H273.444V196H296.444ZM355.554 174.035V166.33H334.049V174.61C334.049 177.6 333.359 180.13 329.564 180.13C325.884 180.13 325.194 177.6 325.194 174.61V140.8C325.194 137.81 325.884 135.28 329.564 135.28C333.359 135.28 334.049 137.81 334.049 140.8V149.08H355.554V141.375C355.554 128.035 346.814 117.455 330.024 117.455C311.279 117.455 301.619 128.495 301.619 142.64V172.77C301.619 186.915 311.279 197.955 330.024 197.955C346.814 197.955 355.554 187.26 355.554 174.035ZM413.048 196L397.868 119.41H371.418L355.893 196H376.708L378.548 185.305H388.898L390.393 196H413.048ZM387.058 171.16H380.848L384.413 148.16L387.058 171.16Z" fill="#204D8F"/>
</svg>
