<svg width="344" height="155" viewBox="0 0 344 155" fill="none" xmlns="http://www.w3.org/2000/svg">
<path d="M28.48 109.44C28.48 101.48 18.28 100.76 18.28 97.24C18.28 96.12 18.88 95.56 19.72 95.56C21.08 95.56 21.36 96.76 21.28 98.84H28.4C28.64 94.4 26.8 89.72 19.88 89.72C13.56 89.72 10.84 93.44 10.84 97.92C10.84 105.48 21.04 106.56 21.04 110.16C21.04 111.28 20.56 111.84 19.36 111.84C18.12 111.84 17.36 110.96 17.48 108.2H10.32C10 114.64 12.76 117.68 19.68 117.68C25.92 117.68 28.48 113.64 28.48 109.44ZM47.9072 100.92V97.36C47.9072 92.96 44.8672 90.36 40.7472 90.36H29.8672V117H37.9072V107.92H40.7472C44.8672 107.92 47.9072 105.32 47.9072 100.92ZM40.3472 101.4C40.3472 102.32 39.8672 102.68 39.1072 102.68H37.9072V96.04H39.1072C39.8672 96.04 40.3472 96.44 40.3472 97.36V101.4ZM65.4403 117V110.52H57.3603V106.24H62.5203V100.6H57.3603V96.52H65.4403V90.36H49.3203V117H65.4403ZM85.4956 117L80.2156 90.36H71.0156L65.6156 117H72.8556L73.4956 113.28H77.0956L77.6156 117H85.4956ZM76.4556 108.36H74.2956L75.5356 100.36L76.4556 108.36ZM106.076 117L101.356 102.16L105.876 90.36H97.7963L94.1963 101.2V90.36H86.1563V117H94.1963V109.28L95.1963 107.08L97.6363 117H106.076ZM124.652 109.44C124.652 101.48 114.452 100.76 114.452 97.24C114.452 96.12 115.052 95.56 115.892 95.56C117.252 95.56 117.532 96.76 117.452 98.84H124.572C124.812 94.4 122.972 89.72 116.052 89.72C109.732 89.72 107.012 93.44 107.012 97.92C107.012 105.48 117.212 106.56 117.212 110.16C117.212 111.28 116.732 111.84 115.532 111.84C114.292 111.84 113.532 110.96 113.652 108.2H106.492C106.172 114.64 108.932 117.68 115.852 117.68C122.092 117.68 124.652 113.64 124.652 109.44Z" fill="#204D8F"/>
<path d="M46.44 141.56V126.36H34.08V140.56C34.08 143.88 33.16 145.32 29.84 145.32C26.52 145.32 25.52 143.88 25.52 140.56V126.36H11.6V141.56C11.6 148.52 16.56 154 29.12 154C41.72 154 46.44 148.52 46.44 141.56ZM82.8869 135.68V135.28C82.8869 130.44 79.0069 126.36 70.9669 126.36H49.8469V153H63.7669V144.92H71.2869C79.2869 144.92 82.8869 140.52 82.8869 135.68ZM68.8069 136.88C68.8069 138.28 68.1669 139.08 66.0869 139.08H63.7669V134.56H66.0869C68.1669 134.56 68.8069 135.28 68.8069 136.76V136.88Z" fill="#204D8F"/>
<path d="M39.52 15.36H25.68L20.76 23.12L15.64 15.36H0.24L12.76 32.96V42H26.68V32.96L39.52 15.36ZM75.8125 28.88V28.4C75.8125 20.64 69.1325 14.36 57.7325 14.36C46.2925 14.36 39.6125 20.64 39.6125 28.4V28.88C39.6125 36.6 46.2925 43 57.7325 43C69.1325 43 75.8125 36.6 75.8125 28.88ZM61.6125 29C61.6125 31.92 60.9725 34.64 57.7325 34.64C54.4925 34.64 53.8125 31.92 53.8125 29V28.32C53.8125 25.36 54.4925 22.64 57.7325 22.64C60.9725 22.64 61.6125 25.36 61.6125 28.32V29ZM113.065 30.56V15.36H100.705V29.56C100.705 32.88 99.785 34.32 96.465 34.32C93.145 34.32 92.145 32.88 92.145 29.56V15.36H78.225V30.56C78.225 37.52 83.185 43 95.745 43C108.345 43 113.065 37.52 113.065 30.56ZM151.192 42V15.36H138.672V25.68L137.752 24.68L127.752 15.36H116.472V42H128.952V31.6L129.952 32.76L139.272 42H151.192ZM188.832 42V27.56H172.232V32.28H178.552V32.44C177.672 33.76 175.992 34.64 173.912 34.64C170.272 34.64 167.992 32.48 167.992 29.4V29.16C167.992 25.72 170.792 23.24 175.192 23.24C178.312 23.24 180.992 24 183.992 25.36L188.192 17.6C184.112 15.6 179.112 14.36 172.472 14.36C161.792 14.36 153.792 20.2 153.792 28.56V29.04C153.792 37.52 161.432 43 170.752 43C174.432 43 177.992 41.84 180.472 39.6L180.992 42H188.832Z" fill="#204D8F"/>
<path d="M29.48 78L24.2 51.36H15L9.6 78H16.84L17.48 74.28H21.08L21.6 78H29.48ZM20.44 69.36H18.28L19.52 61.36L20.44 69.36ZM55.9006 78V51.36H45.9006L43.9406 60.76L43.2606 64.36L42.5406 60.76L40.5406 51.36H30.1406V78H36.8206V63.6L37.7406 68.04L39.7406 78H44.9806L47.1806 68.04L48.1806 63.6V78H55.9006ZM74.0341 78V71.52H65.9541V67.24H71.1141V61.6H65.9541V57.52H74.0341V51.36H57.9141V78H74.0341ZM94.6894 78V77.88C94.2094 76.6 93.7694 75.24 93.7694 73.56V68.92C93.7694 67.16 92.6494 65.56 90.2494 65.12C92.7694 64.48 93.6494 62.92 93.6494 61.28V57.44C93.6494 53.76 90.6094 51.36 86.3294 51.36H75.6094V78H83.6094V67.92H84.6894C85.8894 67.92 86.2094 68.72 86.2094 69.64V73.88C86.2094 75.8 86.7694 78 87.8894 78H94.6894ZM86.0094 61.6C86.0094 62.56 85.6094 62.92 84.8094 62.92H83.6094V57.04H84.8094C85.6094 57.04 86.0094 57.4 86.0094 58.36V61.6ZM103.648 78V51.36H95.6484V78H103.648ZM124.208 70.36V67.68H116.728V70.56C116.728 71.6 116.488 72.48 115.168 72.48C113.888 72.48 113.648 71.6 113.648 70.56V58.8C113.648 57.76 113.888 56.88 115.168 56.88C116.488 56.88 116.728 57.76 116.728 58.8V61.68H124.208V59C124.208 54.36 121.168 50.68 115.328 50.68C108.808 50.68 105.448 54.52 105.448 59.44V69.92C105.448 74.84 108.808 78.68 115.328 78.68C121.168 78.68 124.208 74.96 124.208 70.36ZM144.207 78L138.927 51.36H129.727L124.327 78H131.567L132.207 74.28H135.807L136.327 78H144.207ZM135.167 69.36H133.007L134.247 61.36L135.167 69.36Z" fill="#204D8F"/>
<path d="M159.467 128.391L145.28 72.2106L313.255 14.3273L335.387 121.582L166.277 119.879L159.467 128.391Z" fill="#FFE2BE"/>
<path d="M159.467 128.391L145.28 72.2106L313.255 14.3273L335.387 121.582L166.277 119.879L159.467 128.391Z" stroke="#FFE2BE"/>
<path d="M180.186 96.3627C180.033 94.751 179.386 93.4912 178.313 93.599C177.224 93.7069 176.804 95.0234 176.934 96.5726L176.963 96.9131C177.099 98.468 177.672 99.813 178.864 99.7846C180.033 99.7562 180.362 98.3318 180.214 96.7202L180.186 96.3627Z" fill="#204D8F"/>
<path d="M180.186 96.3627C180.033 94.751 179.386 93.4912 178.313 93.599C177.224 93.7069 176.804 95.0234 176.934 96.5726L176.963 96.9131C177.099 98.468 177.672 99.813 178.864 99.7846C180.033 99.7562 180.362 98.3318 180.214 96.7202L180.186 96.3627Z" stroke="#FFE2BE"/>
<path d="M209.672 91.3688C208.889 85.7905 208.134 83.129 207.487 83.2368C206.84 83.3446 206.84 86.0799 207.595 91.5561L207.635 91.8228C208.39 97.299 209.144 99.9662 209.82 99.9548C210.495 99.9435 210.495 97.2139 209.712 91.6355L209.672 91.3688Z" fill="#204D8F"/>
<path d="M209.672 91.3688C208.889 85.7905 208.134 83.129 207.487 83.2368C206.84 83.3446 206.84 86.0799 207.595 91.5561L207.635 91.8228C208.39 97.299 209.144 99.9662 209.82 99.9548C210.495 99.9435 210.495 97.2139 209.712 91.6355L209.672 91.3688Z" stroke="#FFE2BE"/>
<path d="M239.76 69.5377C238.563 69.8101 238.421 73.1072 238.869 75.7517L238.909 75.9957C239.386 78.8047 240.362 81.1201 241.463 80.9612C242.331 80.8363 242.694 79.1396 242.881 76.7618L242.836 76.5064C242.138 72.4376 240.77 69.3107 239.76 69.5377Z" fill="#204D8F"/>
<path d="M239.76 69.5377C238.563 69.8101 238.421 73.1072 238.869 75.7517L238.909 75.9957C239.386 78.8047 240.362 81.1201 241.463 80.9612C242.331 80.8363 242.694 79.1396 242.881 76.7618L242.836 76.5064C242.138 72.4376 240.77 69.3107 239.76 69.5377Z" stroke="#FFE2BE"/>
<path d="M177.831 88.2023C178.773 88.0434 179.295 86.7779 179.119 84.9165L179.091 84.6158C178.966 83.2538 178.455 81.7784 177.28 82.0735C176.106 82.3629 175.856 83.9632 175.964 85.2741L175.986 85.5635C176.145 87.3567 176.889 88.3612 177.831 88.2023Z" fill="#204D8F"/>
<path d="M177.831 88.2023C178.773 88.0434 179.295 86.7779 179.119 84.9165L179.091 84.6158C178.966 83.2538 178.455 81.7784 177.28 82.0735C176.106 82.3629 175.856 83.9632 175.964 85.2741L175.986 85.5635C176.145 87.3567 176.889 88.3612 177.831 88.2023Z" stroke="#FFE2BE"/>
<path d="M343.791 120.815C343.195 115.714 328.424 9.10647 327.839 6.26905C327.255 3.43164 326.273 0.923364 324.202 0.208336C322.13 -0.506693 318.283 0.770144 315.894 1.75189C258.975 25.1719 202.062 48.5919 145.144 72.0176C139.179 74.4748 135.304 77.2896 137.738 84.0312C144.559 102.917 151.42 129.753 158.241 148.639C159.11 151.045 160.267 153.741 162.696 154.53C164.909 155.25 167.378 153.974 168.774 152.107C170.164 150.24 170.715 147.896 171.237 145.626C172.826 138.691 174.409 131.757 175.998 124.822C176.293 123.528 176.684 122.098 177.808 121.394C178.784 120.787 180.033 120.912 181.173 121.054C201.483 123.619 322.857 132.273 325.127 132.262C327.397 132.25 337.049 133.328 340.443 131.042C343.837 128.76 344.387 125.917 343.791 120.815ZM163.99 106.413L162.895 83.9915C164.387 83.5829 165.028 81.0576 164.886 78.5777L168.11 77.4428L170.073 106.799L163.99 106.413ZM179.664 108.632C174.386 108.223 171.685 103.978 171.339 99.1036L171.322 98.8312C171.106 95.8065 172.003 92.7875 174.142 91.2042C172.264 90.7616 170.913 88.2136 170.692 85.1719L170.675 84.8995C170.346 80.3653 171.827 74.9345 176.492 73.2093C181.139 71.4899 183.568 76.4383 184.124 81.801L184.158 82.1245C184.533 85.7167 183.699 89.0989 181.951 90.143C184.357 91.3234 185.821 94.6375 186.201 98.2467L186.235 98.5702C186.842 104.381 184.941 109.04 179.664 108.632ZM196.575 108.473C195.667 106.254 195.258 103.961 194.793 100.091L193.266 87.2943L191.337 87.5837L190.208 77.8627L192.194 77.3463L191.49 71.4729L195.956 67.5061L197.046 76.0922L199.355 75.4963L200.746 86.1763L198.368 86.5339L200.076 100C200.524 103.519 201.132 106.311 202.352 108.842L196.575 108.473ZM211.221 110.005C206.926 109.71 203.748 102.043 202.471 92.3505L202.42 91.9703C201.143 82.2834 202.147 74.1684 206.074 73.1299C210.001 72.0914 213.242 80.0191 214.825 90.824L214.887 91.2496C216.476 102.055 215.517 110.294 211.221 110.005ZM224.081 110.215L223.224 104.608C220.171 84.6441 228.291 83.6794 227.003 75.6439C226.634 73.3342 225.8 71.7906 224.529 72.0914C223.167 72.4092 221.771 74.804 220.591 78.0273L217.208 64.3453C218.701 59.7997 220.171 57.0815 222.804 56.1111C226.402 54.7832 230.17 61.8313 231.759 71.4388C233.484 81.8748 231.747 88.032 228.303 94.8531L235.623 94.4673L238.376 111.129L224.081 110.215ZM246.082 112.683C243.676 112.513 241.633 110.533 239.091 106.986L237.91 93.5082C239.454 95.3866 241.162 96.7883 242.603 96.7429C245.072 96.6577 245.27 90.5913 244.277 84.8257L244.175 84.2355C243.857 88.3101 243.228 90.8354 241.474 90.9659C238.364 91.1986 235.413 84.7803 233.898 75.6836L233.83 75.2807C232.088 64.8163 232.922 54.1987 236.77 52.831C240.901 51.3613 245.673 61.7178 248.914 80.0816L249.163 81.4889C252.529 100.551 250.934 113.024 246.082 112.683ZM273.242 113.325L264.395 89.9104L263.39 87.0503L268.168 113.001L262.028 112.615L250.423 48.4614L255.394 46.7136L264.241 68.993L265.144 71.4729L260.207 45.0168L265.723 43.076L279.109 113.694L273.242 113.325ZM290.817 115.827C285.437 115.447 279.155 98.7858 275.364 78.9523L275.131 77.7208C271.324 57.7852 271.051 40.6472 275.852 38.9447C280.642 37.2423 286.924 53.8298 291.225 75.5587L291.492 76.9037C295.776 98.5077 296.179 116.202 290.817 115.827ZM316.24 116.049L305.588 73.7201L312.103 115.788L305.39 115.362L285.147 36.2378L291.719 33.9225L301.956 75.729L295.084 32.7421L301.02 30.6538L312.035 74.9912L304.578 29.3997L309.793 27.561L323.697 116.52L316.24 116.049Z" fill="#204D8F"/>
<path d="M284.875 76.183C283.309 68.1644 281.589 60.8552 280.182 61.1674C278.775 61.4795 279.881 68.7773 281.408 76.654L281.76 78.4642C283.263 86.2274 284.977 93.4458 286.453 93.3834C287.928 93.3209 286.782 85.938 285.238 78.0273L284.875 76.183Z" fill="#204D8F"/>
<path d="M284.875 76.183C283.309 68.1644 281.589 60.8552 280.182 61.1674C278.775 61.4795 279.881 68.7773 281.408 76.654L281.76 78.4642C283.263 86.2274 284.977 93.4458 286.453 93.3834C287.928 93.3209 286.782 85.938 285.238 78.0273L284.875 76.183Z" stroke="#FFE2BE"/>
</svg>
