<svg width="335" height="174" viewBox="0 0 335 174" fill="none" xmlns="http://www.w3.org/2000/svg">
<path d="M26.9813 80.4C7.0813 80.4 -0.848703 71.66 0.0712966 53.14H20.6613C20.3213 61.07 22.5013 63.6 26.0713 63.6C29.5213 63.6 30.9013 61.99 30.9013 58.77C30.9013 48.42 1.5713 45.31 1.5713 23.58C1.5713 10.7 9.3913 0 27.5613 0C47.4613 0 52.7513 13.46 52.0613 26.22H31.5813C31.8113 20.24 31.0013 16.79 27.0913 16.79C24.6713 16.79 22.9513 18.4 22.9513 21.62C22.9513 31.74 52.2813 33.81 52.2813 56.7C52.2813 68.79 44.9213 80.4 26.9813 80.4Z" fill="#204D8F"/>
<path d="M87.7013 52.34H79.5313V78.45H56.4213V1.85H87.7013C99.5513 1.85 108.291 9.33 108.291 21.98V32.22C108.291 44.87 99.5513 52.34 87.7013 52.34ZM86.5513 21.98C86.5513 19.33 85.1713 18.19 82.9813 18.19H79.5313V37.28H82.9813C85.1713 37.28 86.5513 36.24 86.5513 33.6V21.98Z" fill="#204D8F"/>
<path d="M112.651 78.45V1.85H159.001V19.56H135.771V31.29H150.611V47.51H135.771V59.82H159.001V78.45H112.651Z" fill="#204D8F"/>
<path d="M196.601 78.45L195.101 67.75H184.751L182.911 78.45H162.091L177.621 1.86H204.071L219.251 78.45H196.601ZM190.621 30.61L187.051 53.61H193.261L190.621 30.61Z" fill="#204D8F"/>
<path d="M255.601 78.45L248.581 49.93L245.701 56.26V78.46H222.581V1.85H245.701V33.02L256.051 1.85H279.281L266.281 35.78L279.851 78.45H255.601V78.45Z" fill="#204D8F"/>
<path d="M309.301 80.4C289.401 80.4 281.471 71.66 282.391 53.14H302.981C302.641 61.07 304.821 63.6 308.391 63.6C311.841 63.6 313.221 61.99 313.221 58.77C313.221 48.42 283.891 45.31 283.891 23.58C283.891 10.7 291.711 0 309.881 0C329.781 0 335.071 13.46 334.381 26.22H313.911C314.141 20.24 313.331 16.79 309.421 16.79C307.001 16.79 305.281 18.4 305.281 21.62C305.281 31.74 334.611 33.81 334.611 56.7C334.601 68.79 327.241 80.4 309.301 80.4Z" fill="#204D8F"/>
<path d="M53.4613 173.67C17.3513 173.67 3.09131 157.91 3.09131 137.9V94.2H43.1113V135.03C43.1113 144.57 45.9913 148.72 55.5313 148.72C65.0713 148.72 67.7213 144.58 67.7213 135.03V94.2H103.261V137.9C103.261 157.92 89.6913 173.67 53.4613 173.67Z" fill="#204D8F"/>
<path d="M175.931 147.57H154.311V170.8H114.291V94.2H175.011C198.131 94.2 209.281 105.93 209.281 119.85V121C209.291 134.92 198.941 147.57 175.931 147.57ZM168.801 124.11C168.801 119.86 166.961 117.78 160.981 117.78H154.311V130.78H160.981C166.961 130.78 168.801 128.48 168.801 124.45V124.11Z" fill="#204D8F"/>
</svg>
