<svg width="542" height="173" viewBox="0 0 542 173" fill="none" xmlns="http://www.w3.org/2000/svg">
<path d="M76.03 53.49V79.48H36V53.49L0 2.89H44.28L59 25.2L73.15 2.88H112.94L76.03 53.49Z" fill="#204D8F"/>
<path d="M162.74 82.35C129.85 82.35 110.64 63.95 110.64 41.75V40.37C110.64 18.06 129.85 0 162.74 0C195.52 0 214.72 18.06 214.72 40.37V41.75C214.72 63.95 195.52 82.35 162.74 82.35ZM173.9 40.15C173.9 31.64 172.06 23.82 162.74 23.82C153.42 23.82 151.47 31.64 151.47 40.15V42.11C151.47 50.51 153.43 58.33 162.74 58.33C172.05 58.33 173.9 50.51 173.9 42.11V40.15Z" fill="#204D8F"/>
<path d="M274.75 82.35C238.64 82.35 224.38 66.59 224.38 46.58V2.88H264.4V43.71C264.4 53.26 267.28 57.4 276.82 57.4C286.37 57.4 289.01 53.26 289.01 43.71V2.88H324.55V46.58C324.55 66.6 310.98 82.35 274.75 82.35Z" fill="#204D8F"/>
<path d="M399.41 79.48L372.61 52.91L369.73 49.58V79.48H333.85V2.88H366.28L395.03 29.68L397.68 32.56V2.88H433.68V79.47H399.41V79.48Z" fill="#204D8F"/>
<path d="M519.12 79.48L517.62 72.58C510.49 79.02 500.25 82.36 489.67 82.36C462.87 82.36 440.91 66.6 440.91 42.22V40.84C440.91 16.8 463.91 0.0100021 494.62 0.0100021C513.71 0.0100021 528.09 3.57 539.82 9.33L527.74 31.64C519.11 27.73 511.41 25.54 502.44 25.54C489.79 25.54 481.74 32.67 481.74 42.56V43.25C481.74 52.11 488.3 58.32 498.76 58.32C504.74 58.32 509.57 55.79 512.1 51.99V51.53H493.93V37.96H541.66V79.48H519.12V79.48Z" fill="#204D8F"/>
<path d="M59.79 170.66L58.29 159.96H47.95L46.11 170.66H25.29L40.82 94.06H67.27L82.45 170.65H59.79V170.66ZM53.81 122.81L50.25 145.81H56.46L53.81 122.81Z" fill="#204D8F"/>
<path d="M136.04 170.66V129.26L133.16 142.03L126.83 170.67H111.76L106.01 142.03L103.36 129.26V170.66H84.17V94.06H114.07L119.82 121.09L121.89 131.44L123.85 121.09L129.49 94.06H158.24V170.65H136.04V170.66Z" fill="#204D8F"/>
<path d="M163.75 170.66V94.06H210.1V111.77H186.87V123.5H201.71V139.72H186.87V152.03H210.1V170.66H163.75V170.66Z" fill="#204D8F"/>
<path d="M249.65 170.66C246.43 170.66 244.82 164.33 244.82 158.81V146.62C244.82 143.97 243.9 141.67 240.45 141.67H237.35V170.65H214.35V94.06H245.17C257.48 94.06 266.22 100.96 266.22 111.54V122.58C266.22 127.3 263.69 131.78 256.44 133.62C263.34 134.89 266.56 139.49 266.56 144.55V157.89C266.56 162.72 267.83 166.63 269.21 170.31V170.66H249.65ZM244.25 114.19C244.25 111.43 243.1 110.4 240.8 110.4H237.35V127.31H240.8C243.1 127.31 244.25 126.27 244.25 123.51V114.19Z" fill="#204D8F"/>
<path d="M272.19 170.66V94.06H295.19V170.65H272.19V170.66Z" fill="#204D8F"/>
<path d="M329.23 172.61C310.48 172.61 300.82 161.57 300.82 147.42V117.29C300.82 103.14 310.48 92.1 329.23 92.1C346.02 92.1 354.76 102.68 354.76 116.02V123.73H333.25V115.45C333.25 112.46 332.56 109.93 328.77 109.93C325.09 109.93 324.4 112.46 324.4 115.45V149.26C324.4 152.25 325.09 154.78 328.77 154.78C332.56 154.78 333.25 152.25 333.25 149.26V140.98H354.76V148.69C354.76 161.92 346.02 172.61 329.23 172.61Z" fill="#204D8F"/>
<path d="M389.27 170.66L387.77 159.96H377.42L375.58 170.66H354.76L370.29 94.07H396.74L411.92 170.66H389.27ZM383.29 122.81L379.73 145.81H385.94L383.29 122.81Z" fill="#204D8F"/>
</svg>
