<svg width="191" height="148" viewBox="0 0 191 148" fill="none" xmlns="http://www.w3.org/2000/svg">
<path d="M28.48 103.44C28.48 95.48 18.28 94.76 18.28 91.24C18.28 90.12 18.88 89.56 19.72 89.56C21.08 89.56 21.36 90.76 21.28 92.84H28.4C28.64 88.4 26.8 83.72 19.88 83.72C13.56 83.72 10.84 87.44 10.84 91.92C10.84 99.48 21.04 100.56 21.04 104.16C21.04 105.28 20.56 105.84 19.36 105.84C18.12 105.84 17.36 104.96 17.48 102.2H10.32C10 108.64 12.76 111.68 19.68 111.68C25.92 111.68 28.48 107.64 28.48 103.44ZM47.9072 94.92V91.36C47.9072 86.96 44.8672 84.36 40.7472 84.36H29.8672V111H37.9072V101.92H40.7472C44.8672 101.92 47.9072 99.32 47.9072 94.92ZM40.3472 95.4C40.3472 96.32 39.8672 96.68 39.1072 96.68H37.9072V90.04H39.1072C39.8672 90.04 40.3472 90.44 40.3472 91.36V95.4ZM65.4403 111V104.52H57.3603V100.24H62.5203V94.6H57.3603V90.52H65.4403V84.36H49.3203V111H65.4403ZM85.4956 111L80.2156 84.36H71.0156L65.6156 111H72.8556L73.4956 107.28H77.0956L77.6156 111H85.4956ZM76.4556 102.36H74.2956L75.5356 94.36L76.4556 102.36ZM106.076 111L101.356 96.16L105.876 84.36H97.7963L94.1963 95.2V84.36H86.1563V111H94.1963V103.28L95.1963 101.08L97.6363 111H106.076ZM124.652 103.44C124.652 95.48 114.452 94.76 114.452 91.24C114.452 90.12 115.052 89.56 115.892 89.56C117.252 89.56 117.532 90.76 117.452 92.84H124.572C124.812 88.4 122.972 83.72 116.052 83.72C109.732 83.72 107.012 87.44 107.012 91.92C107.012 99.48 117.212 100.56 117.212 104.16C117.212 105.28 116.732 105.84 115.532 105.84C114.292 105.84 113.532 104.96 113.652 102.2H106.492C106.172 108.64 108.932 111.68 115.852 111.68C122.092 111.68 124.652 107.64 124.652 103.44Z" fill="#204D8F"/>
<path d="M46.44 135.56V120.36H34.08V134.56C34.08 137.88 33.16 139.32 29.84 139.32C26.52 139.32 25.52 137.88 25.52 134.56V120.36H11.6V135.56C11.6 142.52 16.56 148 29.12 148C41.72 148 46.44 142.52 46.44 135.56ZM82.8869 129.68V129.28C82.8869 124.44 79.0069 120.36 70.9669 120.36H49.8469V147H63.7669V138.92H71.2869C79.2869 138.92 82.8869 134.52 82.8869 129.68ZM68.8069 130.88C68.8069 132.28 68.1669 133.08 66.0869 133.08H63.7669V128.56H66.0869C68.1669 128.56 68.8069 129.28 68.8069 130.76V130.88Z" fill="#204D8F"/>
<path d="M39.52 9.36H25.68L20.76 17.12L15.64 9.36H0.24L12.76 26.96V36H26.68V26.96L39.52 9.36ZM75.8125 22.88V22.4C75.8125 14.64 69.1325 8.36 57.7325 8.36C46.2925 8.36 39.6125 14.64 39.6125 22.4V22.88C39.6125 30.6 46.2925 37 57.7325 37C69.1325 37 75.8125 30.6 75.8125 22.88ZM61.6125 23C61.6125 25.92 60.9725 28.64 57.7325 28.64C54.4925 28.64 53.8125 25.92 53.8125 23V22.32C53.8125 19.36 54.4925 16.64 57.7325 16.64C60.9725 16.64 61.6125 19.36 61.6125 22.32V23ZM113.065 24.56V9.36H100.705V23.56C100.705 26.88 99.785 28.32 96.465 28.32C93.145 28.32 92.145 26.88 92.145 23.56V9.36H78.225V24.56C78.225 31.52 83.185 37 95.745 37C108.345 37 113.065 31.52 113.065 24.56ZM151.192 36V9.36H138.672V19.68L137.752 18.68L127.752 9.36H116.472V36H128.952V25.6L129.952 26.76L139.272 36H151.192ZM188.832 36V21.56H172.232V26.28H178.552V26.44C177.672 27.76 175.992 28.64 173.912 28.64C170.272 28.64 167.992 26.48 167.992 23.4V23.16C167.992 19.72 170.792 17.24 175.192 17.24C178.312 17.24 180.992 18 183.992 19.36L188.192 11.6C184.112 9.6 179.112 8.36 172.472 8.36C161.792 8.36 153.792 14.2 153.792 22.56V23.04C153.792 31.52 161.432 37 170.752 37C174.432 37 177.992 35.84 180.472 33.6L180.992 36H188.832Z" fill="#204D8F"/>
<path d="M29.48 72L24.2 45.36H15L9.6 72H16.84L17.48 68.28H21.08L21.6 72H29.48ZM20.44 63.36H18.28L19.52 55.36L20.44 63.36ZM55.9006 72V45.36H45.9006L43.9406 54.76L43.2606 58.36L42.5406 54.76L40.5406 45.36H30.1406V72H36.8206V57.6L37.7406 62.04L39.7406 72H44.9806L47.1806 62.04L48.1806 57.6V72H55.9006ZM74.0341 72V65.52H65.9541V61.24H71.1141V55.6H65.9541V51.52H74.0341V45.36H57.9141V72H74.0341ZM94.6894 72V71.88C94.2094 70.6 93.7694 69.24 93.7694 67.56V62.92C93.7694 61.16 92.6494 59.56 90.2494 59.12C92.7694 58.48 93.6494 56.92 93.6494 55.28V51.44C93.6494 47.76 90.6094 45.36 86.3294 45.36H75.6094V72H83.6094V61.92H84.6894C85.8894 61.92 86.2094 62.72 86.2094 63.64V67.88C86.2094 69.8 86.7694 72 87.8894 72H94.6894ZM86.0094 55.6C86.0094 56.56 85.6094 56.92 84.8094 56.92H83.6094V51.04H84.8094C85.6094 51.04 86.0094 51.4 86.0094 52.36V55.6ZM103.648 72V45.36H95.6484V72H103.648ZM124.208 64.36V61.68H116.728V64.56C116.728 65.6 116.488 66.48 115.168 66.48C113.888 66.48 113.648 65.6 113.648 64.56V52.8C113.648 51.76 113.888 50.88 115.168 50.88C116.488 50.88 116.728 51.76 116.728 52.8V55.68H124.208V53C124.208 48.36 121.168 44.68 115.328 44.68C108.808 44.68 105.448 48.52 105.448 53.44V63.92C105.448 68.84 108.808 72.68 115.328 72.68C121.168 72.68 124.208 68.96 124.208 64.36ZM144.207 72L138.927 45.36H129.727L124.327 72H131.567L132.207 68.28H135.807L136.327 72H144.207ZM135.167 63.36H133.007L134.247 55.36L135.167 63.36Z" fill="#204D8F"/>
</svg>
