<svg width="79" height="60" viewBox="0 0 79 60" fill="none" 
    xmlns="http://www.w3.org/2000/svg">
    <path d="M40.8361 41.5581H43.2632C43.492 41.5581 43.6072 41.6717 43.6072 41.9021V51.7527C43.6072 51.9815 43.4936 52.0967 43.2632 52.0967H41.9193C41.6889 52.0967 41.5753 51.9831 41.5753 51.7527V43.9836H41.5097L39.8378 49.4745C39.7722 49.6936 39.6346 49.8024 39.4282 49.8024H38.0523C37.8443 49.8024 37.7083 49.6936 37.6427 49.4745L35.9388 43.9676H35.8732V51.7543C35.8732 51.8855 35.8508 51.9751 35.8076 52.0247C35.7644 52.0743 35.67 52.0983 35.5292 52.0983H34.1853C33.9549 52.0983 33.8413 51.9847 33.8413 51.7543V41.9021C33.8413 41.6717 33.9549 41.5581 34.1853 41.5581H36.6284C36.7803 41.5581 36.8843 41.6349 36.9387 41.7869L38.6762 47.5722H38.7754L40.5289 41.7869C40.5577 41.6349 40.6617 41.5581 40.8361 41.5581Z" fill="black"/>
    <path d="M52.3426 52.0967H46.9829C46.7541 52.0967 46.6389 51.9831 46.6389 51.7527V41.9021C46.6389 41.6733 46.7541 41.5581 46.9829 41.5581H52.3426C52.5618 41.5581 52.6706 41.6717 52.6706 41.9021V43.0172C52.6706 43.2476 52.5618 43.3612 52.3426 43.3612H48.9172C48.786 43.3612 48.7204 43.4204 48.7204 43.542V45.6731C48.7204 45.7931 48.786 45.8523 48.9172 45.8523H51.7202C51.9506 45.8523 52.0642 45.9675 52.0642 46.1978V47.3114C52.0642 47.5402 51.9506 47.6554 51.7202 47.6554H48.9172C48.786 47.6554 48.7204 47.7146 48.7204 47.8362V50.1144C48.7204 50.2344 48.786 50.2952 48.9172 50.2952H52.3426C52.5618 50.2952 52.6706 50.4088 52.6706 50.6392V51.7543C52.6706 51.9831 52.5618 52.0967 52.3426 52.0967Z" fill="black"/>
    <path d="M57.6528 50.2936H59.4399C59.7902 50.2936 60.0382 50.22 60.1854 50.0728C60.3342 49.924 60.4062 49.676 60.4062 49.3257V44.3275C60.4062 43.9772 60.3326 43.7292 60.1854 43.5804C60.0382 43.4332 59.7902 43.3596 59.4399 43.3596H57.6528C57.5328 43.3596 57.4736 43.4188 57.4736 43.5388V50.1128C57.4736 50.2344 57.5328 50.2936 57.6528 50.2936ZM55.3921 51.7527V41.9021C55.3921 41.6733 55.5073 41.5581 55.7361 41.5581H59.7838C60.6366 41.5581 61.3006 41.7901 61.7757 42.2541C62.2509 42.7196 62.4893 43.3772 62.4893 44.23V49.4265C62.4893 50.2792 62.2509 50.9368 61.7757 51.4008C61.3006 51.8663 60.6366 52.0983 59.7838 52.0983H55.7361C55.5073 52.0983 55.3921 51.9831 55.3921 51.7527Z" fill="black"/>
    <path d="M67.5209 41.9021V51.7527C67.5209 51.9815 67.4057 52.0967 67.177 52.0967H65.7834C65.5547 52.0967 65.4395 51.9815 65.4395 51.7527V41.9021C65.4395 41.6733 65.5531 41.5581 65.7834 41.5581H67.177C67.4057 41.5581 67.5209 41.6733 67.5209 41.9021Z" fill="black"/>
    <path d="M74.1094 43.542L72.9287 48.2793H75.3558L74.175 43.542H74.1094ZM71.7336 52.0967H70.1608C69.9641 52.0967 69.8985 51.9831 69.9641 51.7527L72.5543 41.9021C72.6311 41.6733 72.7943 41.5581 73.0455 41.5581H75.2262C75.4997 41.5581 75.6629 41.6717 75.7189 41.9021L78.3076 51.7527C78.3732 51.9831 78.3076 52.0967 78.1108 52.0967H76.5381C76.4181 52.0967 76.3349 52.0727 76.2917 52.0231C76.2485 51.9735 76.2149 51.8839 76.1941 51.7527L75.7349 49.9496H72.5383L72.0791 51.7527C72.0567 51.8839 72.0215 51.9735 71.9719 52.0231C71.9223 52.0727 71.8423 52.0967 71.7336 52.0967Z" fill="black"/>
    <path d="M55.4593 0H52.9122C51.3043 0 49.9012 0.911949 49.1908 2.24307C49.0596 2.48946 48.9092 2.93424 48.7349 3.16622C48.2613 3.79339 47.3397 4.27176 45.9958 4.27176C44.4455 4.27176 43.5368 3.5102 43.1864 2.58705V2.59025C42.5352 1.09594 41.0441 0.0447975 39.3178 0.0447975H36.7707C34.4509 0.0447975 32.5518 1.94229 32.5518 4.26376V13.2521C32.3518 14.6632 31.2846 16.0503 30.0063 16.0503C29.9583 16.0503 29.9119 16.0439 29.8655 16.0391C28.5104 15.9319 27.4241 14.2904 27.4241 12.7881V13.2841C27.4241 10.9642 25.5266 9.06509 23.2067 9.06509H20.658C18.3382 9.06509 16.4407 10.9626 16.4407 13.2841V29.3791H16.4311V30.5007C16.3447 32.091 15.1559 33.7629 13.7112 33.7629C12.2105 33.7629 10.985 31.9598 10.985 30.3183V26.7745V13.2905V13.2825C10.985 10.9626 9.08589 9.06349 6.76602 9.06349H4.21896C1.89749 9.06509 0 10.9626 0 13.2825V18.399V21.9428V33.2093V35.4252V35.4332C0 37.7531 1.89749 39.6506 4.21896 39.6506H6.76602C7.44438 39.6506 8.11794 39.4842 8.71791 39.1674C9.30348 38.8602 9.81225 38.4138 10.1962 37.8763C10.3386 37.6779 10.465 37.4651 10.5706 37.2443C10.705 36.9627 10.7738 36.6763 10.9834 36.4347C11.1642 36.2268 11.385 36.03 11.6217 35.886C11.9017 35.7148 12.2121 35.5932 12.5289 35.5132C12.9049 35.4172 13.2953 35.3772 13.6824 35.3772C15.2327 35.3772 16.4215 36.2476 16.4215 37.0603C16.4215 37.2459 16.4391 57.472 16.4391 57.472C16.4391 62.3789 27.4225 60.3486 27.4225 49.5684V45.1063V36.4699V34.5341V20.4948H27.4577C27.6496 19.1061 28.6464 17.6262 29.8623 17.519C29.9103 17.5142 29.9551 17.5078 30.0031 17.5078C31.2814 17.5078 32.3502 19.0517 32.5486 20.4948V21.1844V29.0592V29.064C32.5486 31.3838 34.4461 33.2829 36.7675 33.2829H39.3146C41.6345 33.2829 43.5336 31.3838 43.5336 29.064V13.0521V10.3002V9.15308C43.5336 7.0828 44.5191 5.88927 45.9638 5.88927C47.4389 5.88927 48.6469 7.63157 48.6885 9.25068C48.6885 10.4922 48.6965 15.6039 48.6965 15.6039C48.6965 17.9414 50.7155 18.1286 52.8946 18.1286C54.4801 18.1286 56.2896 17.4822 57.6288 15.8423C58.7903 14.42 59.675 13.2105 59.675 10.0666V6.87001V6.44124V4.26376V4.22696V4.21896C59.6782 1.89909 57.7792 0 55.4593 0Z" fill="black"/>
</svg>
