<svg width="21" height="21" viewBox="0 0 21 21" fill="none" xmlns="http://www.w3.org/2000/svg">
<path d="M19.8406 0H1.15938C0.518875 0 0 0.518875 0 1.15938V19.8415C0 20.4811 0.518875 21 1.15938 21H11.2175V12.8678H8.4805V9.6985H11.2175V7.36137C11.2175 4.64888 12.8739 3.17188 15.2941 3.17188C16.4535 3.17188 17.4492 3.2585 17.7397 3.297V6.132L16.0615 6.13287C14.7455 6.13287 14.4909 6.7585 14.4909 7.6755V9.69938H17.6295L17.2209 12.8686H14.4909V21H19.8424C20.4811 21 21 20.4811 21 19.8406V1.15938C21 0.518875 20.4811 0 19.8406 0V0Z" fill="black"/>
</svg>
