<svg width="23" height="18" viewBox="0 0 23 18" fill="none" xmlns="http://www.w3.org/2000/svg">
<path d="M23 2.13095C22.1538 2.49272 21.2443 2.73636 20.2898 2.84619C21.2645 2.28415 22.0129 1.39356 22.3646 0.33224C21.4532 0.852748 20.4432 1.23113 19.3679 1.43509C18.5083 0.551887 17.2807 0 15.9237 0C12.8771 0 10.6385 2.73728 11.3265 5.57886C7.406 5.38966 3.92917 3.5808 1.60137 0.831522C0.365125 2.87387 0.96025 5.54563 3.06092 6.89858C2.2885 6.87459 1.56017 6.67063 0.924792 6.33009C0.873042 8.43519 2.43992 10.4046 4.70925 10.843C4.04513 11.0165 3.31775 11.0571 2.57792 10.9205C3.17783 12.7257 4.92008 14.039 6.98625 14.0759C5.0025 15.5737 2.50317 16.2428 0 15.9586C2.08821 17.2478 4.56933 18 7.2335 18C15.9946 18 20.9444 10.8744 20.6454 4.48339C21.5673 3.84198 22.3675 3.04184 23 2.13095Z" fill="black"/>
</svg>
