<svg width="30" height="21" viewBox="0 0 30 21" fill="none" xmlns="http://www.w3.org/2000/svg">
<path d="M28.2313 1.77471C27.1709 0.51418 25.2131 0 21.4742 0H7.90185C4.07734 0 2.08638 0.547348 1.02997 1.88937C0 3.19785 0 5.12579 0 7.79411V12.8799C0 18.0493 1.22206 20.6739 7.90185 20.6739H21.4743C24.7167 20.6739 26.5134 20.2202 27.6757 19.1078C28.8677 17.967 29.3763 16.1045 29.3763 12.8799V7.79411C29.3763 4.98014 29.2966 3.04083 28.2313 1.77471ZM18.8597 11.0392L12.6965 14.2602C12.5588 14.3322 12.4081 14.368 12.2576 14.368C12.0872 14.368 11.9172 14.3221 11.7666 14.2309C11.4831 14.0591 11.31 13.7518 11.31 13.4203V6.99886C11.31 6.66795 11.4826 6.36092 11.7656 6.18902C12.0487 6.01713 12.4007 6.00538 12.6944 6.15794L18.8575 9.35826C19.1711 9.52106 19.368 9.84477 19.3685 10.1979C19.3689 10.5514 19.1728 10.8756 18.8597 11.0392Z" fill="black"/>
</svg>
